<?xml version="1.0" standalone="no"?>
<!DOCTYPE svg PUBLIC "-//W3C//DTD SVG 1.1//EN" "http://www.w3.org/Graphics/SVG/1.1/DTD/svg11.dtd">
<svg xmlns="http://www.w3.org/2000/svg"><metadata>This SVG WebFont was generated by YouWorkForThem.
</metadata><defs><font horiz-adv-x="1904" id="ywftsvg"><font-face ascent="1536" bbox="-156.076 -498 2431 1974" cap-height="1419" descent="-512" font-family="" font-stretch="normal" font-weight="375" panose-1="0 0 0 0 0 0 0 0 0 0" underline-position="0" underline-thickness="0" unicode-range="U+0001-FB02" units-per-em="2048" x-height="1008"/><missing-glyph horiz-adv-x="520"/><glyph glyph-name=".notdef" horiz-adv-x="520"/><glyph glyph-name="glyph1" horiz-adv-x="0"/><glyph glyph-name="glyph3" horiz-adv-x="0"/><glyph glyph-name="glyph3" horiz-adv-x="0"/><glyph d="M190 1409l795 -2v-162h-784v-2l274 -287q66 25 148 40.5t184 17.5q39 4 80 1t92 -7v-164q-76 8 -168 6q-47 -4 -96 -9t-94 -22q92 -102 178 -202.5t170 -198.5q14 18 19 44.5t7 51.5q2 29 0 57h37t50.5 1t47 1h29.5q2 -57 -6 -135t-53 -151l272 -287h-229l-142 152 q-68 -70 -160.5 -114t-209.5 -48q-35 -2 -67 -1t-62 7q-88 12 -162 53t-127 102.5t-83 138.5t-30 163q0 141 63.5 243.5t172.5 173.5l-146 172v367zM272 440q6 -111 75 -180.5t164 -93t194.5 3.5t166.5 106q-100 115 -206.5 235t-208.5 237q-86 -47 -137.5 -122t-47.5 -186z " glyph-name="uni0001" horiz-adv-x="1312"/><glyph glyph-name="space" horiz-adv-x="473" unicode=" "/><glyph d="M371 1409l2 -1223h-199l-2 1223h199zM174 51h203v-51h-203v51z" glyph-name="exclam" horiz-adv-x="544" unicode="!"/><glyph d="M102 877v477h70v-477h-70zM221 877v477h70v-477h-70z" glyph-name="quotedbl" horiz-adv-x="395" unicode="&quot;"/><glyph d="M848 401h-414v-401h-51v401h-254v54h254v524h-254v51h254v379h51v-379h414v379h51v-379h240v-51h-240v-524h240v-54h-240v-401h-51v401zM434 455h414v524h-414v-524z" glyph-name="numbersign" horiz-adv-x="1273" unicode="#"/><glyph d="M909 -16q-203 2 -338 47t-220 117.5t-129 167t-62 192.5l188 49q12 -55 39 -121.5t86 -124t163.5 -98.5t272.5 -43v463q-115 2 -234.5 17.5t-218 56.5t-161 113.5t-62.5 189.5q2 98 52.5 174t140.5 127t213 77.5t270 30.5v176h54v-176q262 -4 439 -108.5t249 -315.5 l-213 -55q-45 135 -159 213t-316 84v-428q150 -4 282.5 -17.5t232 -54.5t155 -116.5t53.5 -202.5q-2 -102 -44.5 -182t-129.5 -135.5t-223 -85t-326 -31.5v-179h-54v179zM963 170q274 2 395 63.5t125 174.5q2 80 -47.5 123.5t-126 65t-168.5 27t-178 9.5v-463zM449 1014 q-2 -59 35.5 -97t101 -60.5t147.5 -33t176 -12.5v426q-92 -2 -175 -15.5t-145.5 -41t-100 -68.5t-39.5 -98z" glyph-name="dollar" horiz-adv-x="1853" unicode="$"/><glyph d="M1386 1372l-1189 -1372l-39 37l1185 1374zM154 1139q0 59 21.5 110t58 89t87 59.5t109.5 21.5t110.5 -21.5t89.5 -59.5t59.5 -89t21.5 -110t-21.5 -109.5t-59.5 -87.5t-89.5 -58.5t-110.5 -21.5t-109.5 21.5t-87 58.5t-58 87.5t-21.5 109.5zM205 1139q0 -47 17.5 -88 t48 -72t71.5 -48.5t88 -17.5q49 0 90 17.5t72 48.5t48 72t17 88q0 98 -64.5 163.5t-162.5 65.5q-47 0 -88 -17.5t-71.5 -48t-48 -72.5t-17.5 -91zM819 285q0 57 21.5 108t58.5 89t88 59.5t111 21.5q57 0 108 -21.5t89 -59.5t59.5 -89t21.5 -108q0 -59 -21.5 -110.5 t-59.5 -88.5t-89 -58.5t-108 -21.5q-59 0 -110.5 21.5t-88.5 58.5t-58.5 88.5t-21.5 110.5zM870 285q0 -47 17.5 -89t48.5 -73t73 -48.5t89 -17.5q49 0 90 17.5t71.5 48.5t48 73t17.5 89q0 98 -64.5 162.5t-162.5 64.5q-47 0 -89 -17.5t-73 -48t-48.5 -71.5t-17.5 -90z" glyph-name="percent" horiz-adv-x="1540" unicode="%"/><glyph d="M1341 1008q-39 49 -84 90t-105 68.5t-139 43t-184 15.5q-217 0 -317 -55.5t-100 -147.5q0 -68 75.5 -121t229.5 -53h1263v-160h-268q0 -182 -61.5 -315t-172 -219t-263 -128t-332.5 -42q-164 0 -304.5 34.5t-243 100t-160.5 163t-56 222.5q0 90 39 148.5t97 94t129 53 t136.5 23.5t116.5 5t72 -1v11h-116t-148.5 20.5t-128 72.5t-54.5 156q0 68 38 127.5t111.5 104.5t183.5 71.5t253 26.5q238 0 397.5 -75.5t270.5 -233.5zM682 688q-43 0 -104.5 -7t-119 -28.5t-99.5 -60.5t-42 -103q0 -74 41 -133t115 -100t175.5 -62.5t221.5 -21.5 q141 0 259 30.5t201 94t129 161t46 230.5h-823z" glyph-name="ampersand" horiz-adv-x="2123" unicode="&amp;"/><glyph d="M141 877v477h70v-477h-70z" glyph-name="quotesingle" horiz-adv-x="354" unicode="'"/><glyph d="M350 1604q-109 -215 -161 -444.5t-52 -465.5t52.5 -465t160.5 -446l-47 -23q-111 219 -164 456t-53 478q0 242 53.5 477.5t163.5 454.5z" glyph-name="parenleft" horiz-adv-x="497" unicode="("/><glyph d="M23 1626q111 -219 164 -454.5t53 -477.5t-53.5 -478t-163.5 -456l-48 23q109 217 161 446.5t52 464.5q0 236 -52 465.5t-161 444.5z" glyph-name="parenright" horiz-adv-x="497" unicode=")"/><glyph d="M219 1300l133 -133v187h51v-187l134 133l36 -36l-133 -134h189v-51h-189l133 -133l-36 -37l-134 133v-186h-51v186l-133 -133l-37 37l133 133h-186v51h186l-133 134z" glyph-name="asterisk" horiz-adv-x="784" unicode="*"/><glyph d="M473 233v420h-414v64h414v405h62v-405h413v-64h-413v-420h-62z" glyph-name="plus" horiz-adv-x="1040" unicode="+"/><glyph d="M156 184h184v-184q0 -66 -40 -124t-103 -99l-27 45q51 33 84 80t33 98h-131v184z" glyph-name="comma" horiz-adv-x="395" unicode=","/><glyph d="M897 508h-760v61h760v-61z" glyph-name="hyphen" horiz-adv-x="1034" unicode="-"/><glyph d="M141 184h185v-184h-185v184z" glyph-name="period" horiz-adv-x="391" unicode="."/><glyph d="M492 1518l-336 -1612l-60 12l334 1612z" glyph-name="slash" horiz-adv-x="595" unicode="/"/><glyph d="M137 698q0 150 53.5 281t147.5 229.5t223 155.5t281 57q154 0 283.5 -57t225 -155.5t148.5 -229.5t53 -281q0 -147 -53 -277t-148.5 -228.5t-225.5 -154.5t-283 -56q-150 0 -279 56t-223 154.5t-148.5 228.5t-54.5 277zM319 698q0 -109 40 -205t111 -167.5t166 -113.5 t206 -42q113 0 209 42t166.5 113.5t110.5 168t40 204.5q0 109 -40 206t-110.5 170t-167 115t-208.5 42q-111 0 -207 -42t-166 -115t-110 -170t-40 -206z" glyph-name="zero" horiz-adv-x="1691" unicode="0"/><glyph d="M557 1409l-10 -1409h-187l5 1300h-9q-12 -66 -29.5 -123t-47 -100t-72.5 -68.5t-105 -25.5v186q49 -6 95.5 7.5t81 44t57 79t26.5 109.5h195z" glyph-name="one" horiz-adv-x="708" unicode="1"/><glyph d="M98 942q27 115 93.5 204t163 149.5t217 92t255.5 31.5q211 0 348.5 -50t215 -126t108.5 -162t31 -157q0 -119 -46 -212.5t-125 -166t-182.5 -124.5t-217 -90t-230.5 -62.5t-222.5 -40t-191.5 -24.5t-139 -16v-12l1370 10v-186h-1415v215q96 10 222 33.5t258 61.5 t261 92.5t229.5 126t162 162.5t61.5 204q0 53 -24.5 112.5t-82 110.5t-152.5 84t-235 33q-211 0 -348 -91t-172 -247z" glyph-name="two" horiz-adv-x="1689" unicode="2"/><glyph d="M233 1409h1328v-375l-799 -233v-8q274 49 453.5 37.5t285 -63.5t147.5 -132t42 -166q0 -53 -33 -135t-121 -160t-244.5 -134t-402.5 -56q-147 0 -280.5 30.5t-241 90t-185.5 146.5t-114 202l213 45q27 -68 79 -126.5t128.5 -101.5t178 -67.5t228.5 -24.5q168 0 279.5 37 t179 90t96.5 111.5t29 101.5q0 76 -39 126t-105.5 82t-153.5 47t-183.5 18.5t-196 -4t-187.5 -17.5v199l908 243v9l-1289 4v184z" glyph-name="three" horiz-adv-x="1810" unicode="3"/><glyph d="M1378 0h-180l2 328l-1079 4v395l840 682h331l-1138 -881v-16l1048 -2v430h176v-430h187v-182h-187v-328z" glyph-name="four" horiz-adv-x="1708" unicode="4"/><glyph d="M174 1409h1374v-178l-1345 2v-270q66 -4 166 -1t218 7t246 4t251.5 -13.5t235.5 -42t197 -83t135 -137.5t50 -203q0 -127 -66.5 -222.5t-176 -160t-247 -96t-278.5 -31.5q-172 0 -317.5 31.5t-256 95t-183.5 157.5t-103 219l207 54q41 -162 200.5 -261.5t448.5 -99.5 q92 0 190.5 19.5t180 59.5t133 99.5t51.5 139.5q0 96 -59.5 154.5t-154.5 89t-217 41t-246 9.5t-240.5 -8.5t-202.5 -7.5l-191 -2v635z" glyph-name="five" horiz-adv-x="1781" unicode="5"/><glyph d="M379 492q0 -68 37 -124.5t103.5 -98.5t158.5 -65.5t203 -23.5q254 0 394 80t140 227q0 84 -42 143.5t-113.5 96.5t-166 53.5t-200.5 16.5q-111 0 -205 -19.5t-162.5 -58.5t-107.5 -95t-39 -132zM1417 1040q-20 25 -57 57.5t-94.5 63.5t-138 51.5t-189.5 20.5 q-131 0 -254 -48t-211 -143.5t-126 -234.5t3 -322h8q-4 133 44.5 226.5t134.5 152t202.5 84t249.5 25.5q121 0 237.5 -30t208 -88t147.5 -145t56 -200q0 -127 -51 -225.5t-146 -165t-232.5 -101t-309.5 -34.5q-190 0 -332.5 51t-236.5 144t-141.5 222t-47.5 285 q0 182 65.5 318.5t175.5 227.5t252 136t296 45q211 0 381 -67.5t286 -215.5z" glyph-name="six" horiz-adv-x="1759" unicode="6"/><glyph d="M334 2l1278 1206v13l-1477 2l2 186h1493l-6 -440l-983 -967h-307z" glyph-name="seven" horiz-adv-x="1777" unicode="7"/><glyph d="M365 1022q0 -68 57 -106.5t168.5 -61.5t274.5 -38t374 -36q61 10 99 35t59.5 54.5t29 60.5t7.5 55q0 51 -34 95t-103.5 77t-177 52.5t-255.5 19.5q-104 0 -195 -13.5t-159 -39t-106.5 -64.5t-38.5 -90zM1464 416q0 51 -44 83.5t-117.5 53t-172 34t-207 25t-222 26.5 t-216.5 40q-86 -29 -139 -80t-53 -137q0 -55 36 -107.5t110.5 -92.5t189 -63.5t272.5 -23.5q127 0 230.5 14.5t177 44t114.5 75t41 108.5zM895 -20q-211 0 -358.5 34.5t-239.5 93t-134 133t-42 152.5q0 68 29.5 120t79 89t110.5 58.5t127 27.5v2q-66 12 -123 39t-99 70 t-66.5 101t-24.5 132q0 94 51 167t143 122t223 74.5t295 25.5q207 0 351.5 -34.5t234.5 -89t131 -121t41 -129.5q0 -61 -30.5 -112.5t-81 -87.5t-114 -55.5t-130.5 -19.5q-2 0 -2 -2q76 -16 147.5 -44t126.5 -70t88 -101t33 -139q0 -119 -57.5 -202t-159 -135t-242.5 -75.5 t-307 -23.5z" glyph-name="eight" horiz-adv-x="1771" unicode="8"/><glyph d="M854 598q111 0 205 21.5t162.5 61.5t107.5 96.5t39 127.5q0 66 -38 123t-105.5 99t-162.5 66t-210 24q-117 0 -212 -18.5t-162.5 -55.5t-104.5 -92.5t-37 -128.5q0 -88 45 -149.5t117.5 -100.5t166 -56.5t189.5 -17.5zM287 383q23 -29 62.5 -66.5t102 -71.5t149.5 -58.5 t204 -24.5q133 0 258 49t212 143.5t125 233.5t-3 321h-8q4 -133 -44.5 -225t-134.5 -150.5t-202.5 -84t-249.5 -25.5q-121 0 -236.5 31.5t-206 93t-145.5 152t-55 206.5q0 125 51 220.5t145.5 159t226.5 95t296 31.5q195 0 340 -51t240 -144.5t142.5 -222.5t47.5 -284 q0 -182 -65.5 -319.5t-174.5 -227.5t-253 -135t-300 -45q-217 0 -401.5 73.5t-303.5 237.5z" glyph-name="nine" horiz-adv-x="1736" unicode="9"/><glyph d="M127 184h184v-184h-184v184zM119 883h184v-185h-184v185z" glyph-name="colon" horiz-adv-x="368" unicode=":"/><glyph d="M119 883h184v-185h-184v185zM141 184h185v-184q0 -66 -40 -124t-104 -99l-26 45q51 33 83.5 80t32.5 98h-131v184z" glyph-name="semicolon" horiz-adv-x="382" unicode=";"/><glyph d="M864 1040l-657 -508l655 -507l-37 -37l-704 544l706 547z" glyph-name="less" horiz-adv-x="985" unicode="&lt;"/><glyph d="M1184 571h-1063v64h1063v-64zM1184 399h-1063v64h1063v-64z" glyph-name="equal" horiz-adv-x="1304" unicode="="/><glyph d="M45 1079l707 -547l-705 -544l-37 37l656 507l-658 508z" glyph-name="greater" horiz-adv-x="985" unicode=">"/><glyph d="M715 205l-2 235q0 74 29.5 123t80.5 83t119 58.5t139 47.5q57 20 116.5 41.5t107 49t76 65.5t26.5 89q-2 72 -50 123t-128 83t-180.5 46.5t-206.5 14.5q-233 0 -367.5 -87t-179.5 -223l-199 58q78 215 268.5 320.5t483.5 105.5q166 0 304 -28t239.5 -83t159 -139 t61.5 -197v-6q2 -106 -48.5 -171.5t-127 -105.5t-166.5 -66t-168 -52.5t-129 -63.5t-51 -100v-223zM711 45h217v-51h-217v51z" glyph-name="question" horiz-adv-x="1765" unicode="?"/><glyph d="M733 391q0 -27 12.5 -52.5t35 -45t53 -30.5t65.5 -11q76 0 142.5 28.5t125 80t105.5 121t84 149.5v37q-51 -18 -116.5 -32.5t-134.5 -29t-135.5 -31t-119.5 -41t-85 -59.5t-32 -84zM1526 119h-170l14 485h-6q-33 -98 -80 -189t-110.5 -161t-142.5 -112t-173 -42 q-66 0 -122 25t-98 64.5t-65.5 91t-23.5 106.5q0 86 44 145.5t114.5 99.5t158.5 65.5t179.5 44t174.5 35t142 38.5l2 133h-496q-121 0 -226 -40t-184 -108.5t-125 -162.5t-46 -201q0 -117 43 -221t128 -183t210 -124t288 -45q113 0 215.5 29.5t174.5 87.5l120 -115 q-92 -80 -225 -123t-285 -43q-199 0 -355.5 58.5t-264 158.5t-163.5 234.5t-56 285.5q0 141 59.5 265t160.5 216.5t238.5 145.5t292.5 53h654z" glyph-name="at" horiz-adv-x="1671" unicode="@"/><glyph d="M1278 481h-746l-202 -483h-201l580 1411h395l582 -1411h-205zM602 666h608l-299 718h-10z" glyph-name="A" horiz-adv-x="1794" unicode="A"/><glyph d="M1055 1409q90 0 167.5 -22.5t136 -65.5t92.5 -107.5t34 -150.5q0 -121 -53.5 -186.5t-126 -96t-146.5 -35t-115 -4.5v-6q25 2 71 0t100.5 -12t109.5 -32.5t100 -62.5t74 -100.5t29 -146.5q0 -193 -117 -287t-340 -94h-919v1409h903zM322 170h753q154 0 219.5 61.5 t65.5 171.5q0 70 -25.5 116t-68.5 74t-99.5 39t-117.5 11h-727v-473zM322 819h710q31 0 79 6t93 30t78 67t33 116q0 47 -20.5 84t-55.5 62.5t-82 39t-100 13.5h-735v-418z" glyph-name="B" horiz-adv-x="1648" unicode="B"/><glyph d="M1544 459q-37 -121 -109.5 -210t-166.5 -148.5t-204 -89t-222 -29.5q-133 0 -260 44t-225.5 132t-159 222t-60.5 312q0 184 62.5 321.5t165 227.5t232.5 134t263 44q115 0 222.5 -30.5t197.5 -92t158.5 -153.5t105.5 -215l-182 -56q-53 166 -182 265.5t-322 99.5 q-102 0 -197.5 -35t-169 -104.5t-117.5 -171t-44 -236.5q0 -133 44 -232.5t116.5 -164t166 -96t189.5 -31.5q94 0 177 25.5t149.5 70.5t115.5 108.5t74 141.5z" glyph-name="C" horiz-adv-x="1652" unicode="C"/><glyph d="M147 1409h592q137 0 268.5 -44t232.5 -132t163.5 -221t62.5 -312q0 -182 -64.5 -317t-170 -224t-239.5 -132t-271 -43h-574v1425zM336 168l387 2q106 0 206.5 34t177.5 100.5t124 165.5t47 232q0 135 -47 233.5t-123 163t-174 96.5t-199 32h-399v-1059z" glyph-name="D" horiz-adv-x="1605" unicode="D"/><glyph d="M147 1409h1254v-190h-1067v-406h1046v-178h-1046v-447h1067v-188h-1254v1409z" glyph-name="E" horiz-adv-x="1540" unicode="E"/><glyph d="M147 1409h1254v-190h-1067v-408h1052v-178h-1052v-633h-187v1409z" glyph-name="F" horiz-adv-x="1540" unicode="F"/><glyph d="M1470 862q-59 172 -207.5 273.5t-363.5 101.5q-109 0 -211 -33t-180 -99.5t-125 -164.5t-47 -227q0 -137 54 -239.5t143.5 -170t203 -100.5t232.5 -33q141 0 248.5 33t186.5 81t128 99t72 88v31h-646v184h666v-436q-37 -35 -94 -82t-139 -89t-190.5 -70.5t-250.5 -26.5 q-152 2 -298 49t-261 139t-184.5 228.5t-69.5 318.5q0 180 66.5 314t174 222t246 132.5t279.5 44.5q125 0 243 -32t218 -95.5t176 -158.5t117 -224z" glyph-name="G" horiz-adv-x="1773" unicode="G"/><glyph d="M1513 657h-1181v-659h-185v1411h185v-571h1181v571h187v-1411h-187v659z" glyph-name="H" horiz-adv-x="1845" unicode="H"/><glyph d="M332 0h-191l2 1419h195z" glyph-name="I" horiz-adv-x="483" unicode="I"/><glyph d="M549 479q0 -131 -30 -225t-81 -153.5t-121.5 -88t-152.5 -28.5h-109v174h72q45 0 88 15t77 54t54.5 102.5t20.5 162.5l2 917h188z" glyph-name="J" horiz-adv-x="708" unicode="J"/><glyph d="M150 1419h210l-4 -692l875 692h291l-904 -712l904 -707h-289l-877 690l-4 -690h-205z" glyph-name="K" horiz-adv-x="1581" unicode="K"/><glyph d="M147 1409h193v-1216h1061v-193h-1254v1409z" glyph-name="L" horiz-adv-x="1521" unicode="L"/><glyph d="M762 1409l373 -1145l370 1145h387l242 -1409h-195l-241 1393h-8l-461 -1393h-189l-462 1393h-9l-231 -1393h-197l240 1409h381z" glyph-name="M" horiz-adv-x="2293" unicode="M"/><glyph d="M352 1391l-10 -1391h-195l3 1409h413l877 -1386l2 1386h205l-11 -1409h-407z" glyph-name="N" horiz-adv-x="1794" unicode="N"/><glyph d="M137 698q0 150 56.5 281t156 229.5t236.5 155.5t299 57q164 0 301 -57t237.5 -155.5t155.5 -229.5t55 -281q0 -147 -55 -277t-155.5 -228.5t-237.5 -154.5t-301 -56q-160 0 -296 56t-236.5 154.5t-158 228.5t-57.5 277zM313 698q0 -104 44 -200.5t121 -170t181.5 -117.5 t225.5 -44t225 44t181 117.5t120 170t43 200.5q0 106 -43 203.5t-120 171.5t-181 117t-225 43t-225.5 -43t-181.5 -117t-121 -171.5t-44 -203.5z" glyph-name="O" horiz-adv-x="1773" unicode="O"/><glyph d="M905 1411q100 0 189.5 -39t155 -106.5t104.5 -157.5t39 -193q0 -104 -39 -195t-104.5 -161t-154.5 -109.5t-190 -39.5h-563v-412l-195 2v1409zM342 594l539 2q66 0 123 25.5t100 68.5t67.5 101.5t24.5 123.5q0 66 -24.5 124.5t-67.5 101.5t-100.5 68.5t-122.5 25.5h-539 v-641z" glyph-name="P" horiz-adv-x="1492" unicode="P"/><glyph d="M885 -16q-160 0 -296 56t-236.5 153.5t-158 227.5t-57.5 277q0 150 56.5 281t156 229.5t236.5 155.5t299 57q164 0 301 -57t237.5 -155.5t155.5 -229.5t55 -281q0 -166 -70.5 -305t-197.5 -231h340v-178h-821zM313 698q0 -104 44 -200.5t121 -169t181.5 -116.5t225.5 -44 t225 44t181 116.5t120 169t43 200.5q0 106 -43 203.5t-120 170.5t-181 116t-225 43t-225.5 -43t-181.5 -116t-121 -170.5t-44 -203.5z" glyph-name="Q" horiz-adv-x="1843" unicode="Q"/><glyph d="M903 1411q100 0 190.5 -39t156 -105.5t104.5 -156.5t39 -190q0 -86 -28 -163t-76 -140.5t-114.5 -108.5t-142.5 -68l400 -440h-265l-360 410h-465v-412l-195 2v1409zM342 594h537q66 0 124 25.5t101 70.5t67.5 103.5t24.5 126.5q0 63 -24.5 120.5t-67.5 100.5 t-101.5 68.5t-123.5 25.5l-537 -2v-639z" glyph-name="R" horiz-adv-x="1542" unicode="R"/><glyph d="M1425 954q-47 135 -167.5 210t-342.5 77q-96 0 -189 -12t-166 -40t-118 -71t-47 -104t40 -100.5t112.5 -61t162 -30.5t189.5 -11q156 -4 297 -16.5t246.5 -51t167 -115.5t59.5 -210q-4 -104 -48 -185t-137 -136.5t-238.5 -84t-350.5 -28.5t-344 41t-228.5 110.5 t-137.5 158.5t-70 185l190 56q14 -66 47 -130.5t99.5 -116.5t174 -85t271.5 -33q152 0 258.5 15.5t175 46t100 74.5t33.5 102q2 70 -35.5 111.5t-100 66t-144.5 34t-170 11.5l-174 4q-117 2 -235 18.5t-210 58.5t-149.5 114.5t-55.5 183.5q0 102 54.5 179t152 128 t230.5 76.5t291 25.5q268 0 451 -101t261 -308z" glyph-name="S" horiz-adv-x="1769" unicode="S"/><glyph d="M1415 1407v-178h-559v-1229h-194v1229h-576v178h1329z" glyph-name="T" horiz-adv-x="1515" unicode="T"/><glyph d="M338 1409l2 -682q0 -106 31.5 -205.5t95 -176.5t159 -124t222.5 -47t221 46t155.5 122t92.5 173t31 200l2 694h188v-698q0 -137 -43 -268.5t-129 -232.5t-216 -163.5t-304 -62.5q-180 0 -312.5 64.5t-219.5 170t-130 239.5t-43 273v678h197z" glyph-name="U" horiz-adv-x="1677" unicode="U"/><glyph d="M590 0l-492 1407h207l481 -1393h9l479 1393h207l-490 -1407h-401z" glyph-name="V" horiz-adv-x="1581" unicode="V"/><glyph d="M1503 0l-297 1077l-301 -1077h-393l-360 1407h206l351 -1395h8l387 1395h203l389 -1395h8l350 1395h205l-361 -1407h-395z" glyph-name="W" horiz-adv-x="2412" unicode="W"/><glyph d="M825 721l-712 688h266l577 -555l576 555h274l-712 -688l764 -721h-275l-627 594l-612 -594h-266z" glyph-name="X" horiz-adv-x="1935" unicode="X"/><glyph d="M811 516h-190l-543 893h217l526 -874l522 874h224l-840 -1409h-223z" glyph-name="Y" horiz-adv-x="1654" unicode="Y"/><glyph d="M156 1409h1474l-6 -207l-1221 -1026l1260 10l-2 -186h-1518v205l1229 1024h-1216v180z" glyph-name="Z" horiz-adv-x="1814" unicode="Z"/><glyph d="M152 1522h237v-52h-186v-1550h186v-51h-237v1653z" glyph-name="bracketleft" horiz-adv-x="542" unicode="["/><glyph d="M45 1530l334 -1612l-60 -12l-335 1612z" glyph-name="backslash" horiz-adv-x="595" unicode="\"/><glyph d="M279 -131h-238v51h186v1550h-186v52h238v-1653z" glyph-name="bracketright" horiz-adv-x="542" unicode="]"/><glyph d="M999 1069l-346 119q-84 -29 -173 -59.5t-175 -59.5l-16 47l364 123l365 -123z" glyph-name="asciicircum" unicode="^"/><glyph d="M1151 -92h-1014v51h1014v-51z" glyph-name="underscore" horiz-adv-x="1308" unicode="_"/><glyph d="M266 1231l785 -129l-13 -51l-784 131z" glyph-name="grave" unicode="`"/><glyph d="M952 0l11 512h-7q-33 -104 -84 -199.5t-118.5 -169t-150.5 -116.5t-179 -43q-68 0 -127 24.5t-103 66.5t-70 97t-26 117q0 90 46 152.5t121 104.5t168 67.5t188.5 45t183.5 37t151 41.5v113h-751v160h919v-1010h-172zM285 295q0 -66 50 -112t128 -46t148.5 32t133 87 t114.5 128t93 157v45q-53 -18 -123.5 -33.5t-144.5 -30t-145.5 -32t-128 -43t-91 -62.5t-34.5 -90z" glyph-name="a" horiz-adv-x="1249" unicode="a"/><glyph d="M330 1419l-4 -780h6q47 203 180 305.5t309 102.5q94 0 185.5 -32t162 -97.5t114.5 -166t44 -235.5t-42 -235.5t-110.5 -167t-156.5 -98t-180 -31.5q-90 0 -171 24.5t-147.5 74.5t-115 126t-72.5 176h-6v-385h-185l2 1419h187zM332 516q0 -59 25.5 -124.5t76.5 -122 t130 -93.5t186 -37q100 0 174.5 32t125 84t76 120.5t25.5 140.5q0 68 -24.5 134.5t-75 120.5t-128 88t-182.5 34q-102 0 -179 -37t-128 -93t-76.5 -123t-25.5 -124z" glyph-name="b" horiz-adv-x="1429" unicode="b"/><glyph d="M1233 338q-31 -90 -88.5 -155.5t-131 -109.5t-158.5 -65.5t-173 -21.5q-106 0 -207.5 32.5t-180.5 98t-127 164t-48 231.5q0 135 50 236.5t132 167t185.5 98.5t209.5 33q90 0 174 -23t155 -68t125 -112.5t83 -159.5l-158 -49q-41 119 -139 184.5t-244 65.5 q-78 0 -151.5 -23.5t-131 -71t-92 -118t-34.5 -162.5t34.5 -160.5t91 -114t129 -68t146.5 -22.5q141 0 243.5 63.5t143.5 180.5z" glyph-name="c" horiz-adv-x="1351" unicode="c"/><glyph d="M1305 1419v-1419h-185l2 385h-8q-23 -100 -71 -176t-113.5 -126t-146.5 -74.5t-169 -24.5q-92 0 -181 33.5t-158.5 99t-112.5 165t-43 232.5q0 137 43 237.5t113.5 166t160.5 97.5t182 32q180 0 314.5 -101.5t181.5 -306.5h8l-4 780h187zM1114 516q0 57 -25.5 124 t-78 123t-130 93t-182.5 37q-104 0 -180 -34t-125 -89t-72.5 -122.5t-23.5 -135.5t25.5 -135.5t77 -119.5t127 -85t175.5 -33q106 0 183.5 37t128.5 93.5t75.5 122t24.5 124.5z" glyph-name="d" horiz-adv-x="1425" unicode="d"/><glyph d="M1241 289q-18 -41 -53 -93.5t-97.5 -99.5t-156.5 -79.5t-232 -32.5q-150 0 -260 39.5t-183 110.5t-108.5 167t-35.5 207q0 137 49 238.5t128 168t179 99.5t203 33q109 0 214 -34t186 -105.5t127 -181.5t38 -261l-936 -2q2 -70 29.5 -128.5t80 -101.5t125 -66.5 t164.5 -23.5q90 0 153 22.5t103.5 54.5t64.5 68t36 62zM678 889q-66 0 -128.5 -18.5t-113.5 -55.5t-87 -93t-46 -130h758q-6 76 -43 131t-91.5 92t-120 55.5t-128.5 18.5z" glyph-name="e" horiz-adv-x="1357" unicode="e"/><glyph d="M553 1419v-139h-186v-270h186v-152h-186v-858h-183v858h-106v152h106v409h369z" glyph-name="f" horiz-adv-x="653" unicode="f"/><glyph d="M106 553q0 100 41 190.5t114 157t173.5 105t216.5 38.5q117 0 215.5 -36.5t169.5 -102.5q10 45 49 81t134 36v-123q-68 4 -98.5 -18.5t-35.5 -32.5q53 -59 82 -135t29 -160q0 -102 -41 -191.5t-113.5 -155t-172 -104.5t-218.5 -39q-98 0 -185 29t-157 82v-209l891 2v-348 l-1020 -117l-8 150l1002 104v76l-902 -2v373q-80 66 -123 156t-43 194zM254 553q0 -63 31.5 -118.5t86 -96.5t127 -64.5t154.5 -23.5q80 0 150.5 23.5t124 64.5t84 96t30.5 119q0 61 -30.5 116.5t-84 97.5t-124 65.5t-150.5 23.5q-82 0 -154.5 -23.5t-127 -65.5t-86 -97.5 t-31.5 -116.5z" glyph-name="g" horiz-adv-x="1329" unicode="g"/><glyph d="M141 1419h189l-4 -803h8q20 92 62 171t107.5 136.5t152.5 90.5t196 33q92 0 178 -30t152.5 -91.5t106.5 -153.5t40 -215l2 -557h-194v516q0 74 -25 141.5t-73 119.5t-119.5 84t-165.5 32q-113 0 -193 -42t-131 -103.5t-75.5 -130t-24.5 -119.5l-2 -498h-187v1419z" glyph-name="h" horiz-adv-x="1456" unicode="h"/><glyph d="M330 0h-189l2 1012h187v-1012zM147 1212h187v-51h-187v51z" glyph-name="i" horiz-adv-x="452" unicode="i"/><glyph d="M193 1012h186l-2 -1098q0 -123 -30 -202t-76 -125t-104 -63.5t-120 -17.5h-72l-2 175h25q37 0 71.5 9t62.5 34.5t44.5 72.5t16.5 121v1094zM193 1139h186v-52h-186v52z" glyph-name="j" horiz-adv-x="514" unicode="j"/><glyph d="M143 1419h189l-4 -825l620 420h283l-649 -430l649 -584h-260l-643 573l-2 -573h-185z" glyph-name="k" horiz-adv-x="1290" unicode="k"/><glyph d="M324 -2h-183l4 1421h187z" glyph-name="l" horiz-adv-x="446" unicode="l"/><glyph d="M141 1010h185l-4 -404h6q16 94 57 175t103.5 139.5t144.5 91t180 32.5q111 0 196 -35.5t143 -96t88 -139.5t32 -167h6q14 94 55 175t103.5 139.5t146.5 91t186 32.5q119 0 205 -36.5t143.5 -103t85 -159t27.5 -202.5l2 -543h-192v498q0 199 -97.5 297t-277.5 94 q-92 -2 -165 -36t-122 -90t-75.5 -129t-26.5 -153v-481h-195v504q0 193 -97 289t-271 92q-90 -2 -162 -36t-122 -90.5t-76.5 -129t-26.5 -152.5l-4 -477h-181v1010z" glyph-name="m" horiz-adv-x="2357" unicode="m"/><glyph d="M141 1010h189l-4 -394h8q20 92 63 171t108.5 136.5t151.5 90.5t195 33q92 0 178 -30t152.5 -91.5t106.5 -153.5t40 -215l2 -557h-194v516q0 76 -25 143.5t-73 118.5t-119.5 81t-165.5 30q-109 0 -189 -42t-132 -102.5t-77.5 -128t-25.5 -118.5l-2 -498h-187v1010z" glyph-name="n" horiz-adv-x="1456" unicode="n"/><glyph d="M115 514q0 111 44 207t119.5 168t177 113.5t218.5 41.5t218 -41.5t177 -113.5t120 -168t44 -207t-44 -207t-120 -167.5t-177 -113.5t-218 -42t-218.5 42t-177 113.5t-119.5 167.5t-44 207zM258 514q0 -70 33 -133.5t90 -112.5t132 -78.5t161 -29.5q84 0 158.5 29.5 t130 78.5t88 112.5t32.5 133.5t-32.5 133.5t-88 111.5t-130 76.5t-158.5 28.5q-86 0 -161 -28.5t-132 -76.5t-90 -111.5t-33 -133.5z" glyph-name="o" horiz-adv-x="1347" unicode="o"/><glyph d="M141 1008h185v-369h6q23 98 70 174t110 128t142 79t165 27q94 0 185.5 -32t163 -98.5t115.5 -166t44 -234.5q0 -137 -42 -237.5t-111.5 -166t-158.5 -97t-181 -31.5q-90 0 -171 24.5t-146.5 74.5t-113 125t-71.5 175h-6l4 -881h-187zM332 514q0 -57 25.5 -122.5 t76.5 -122t130 -93.5t186 -37q100 0 175.5 31t127 83t78 119.5t26.5 141.5q0 72 -25.5 140.5t-78 121.5t-131 85t-185.5 32q-102 0 -178 -37t-127 -94t-75.5 -124t-24.5 -124z" glyph-name="p" horiz-adv-x="1445" unicode="p"/><glyph d="M1122 383h-8q-47 -201 -181 -300t-315 -99q-94 0 -183 32.5t-159.5 99t-113.5 166t-43 232.5q0 135 43 235.5t112.5 167t158.5 98.5t181 32q88 0 168 -26t146.5 -77t115 -128t70.5 -177h8l-2 369h185v-1506h-187zM1114 514q0 57 -25.5 124t-78 124t-130 94t-182.5 37 q-104 0 -181 -33t-127 -87t-73.5 -122.5t-23.5 -138.5q0 -68 25.5 -135.5t78 -119.5t128 -85t177.5 -33q106 0 183.5 37t128.5 93.5t75.5 122t24.5 122.5z" glyph-name="q" horiz-adv-x="1435" unicode="q"/><glyph d="M141 1010h193l-6 -400h8q23 92 70 175t118.5 143.5t169 91.5t219.5 20v-198q-135 33 -243.5 7t-183 -82t-114.5 -130t-40 -137l-4 -500h-187v1010z" glyph-name="r" horiz-adv-x="1011" unicode="r"/><glyph d="M266 342q12 -29 37 -63.5t71 -65.5t116.5 -51.5t175.5 -20.5q57 0 122.5 7.5t121 28t91 56t35.5 93.5q0 70 -55 96.5t-135 26.5h-219q-82 0 -168 12t-156 43t-115 85t-47 140q0 80 46 138.5t121 95t170 54t196 17.5q80 0 157.5 -16.5t146.5 -50t122 -83.5t84 -120 l-166 -64q-35 86 -131 131.5t-223 45.5q-68 0 -130.5 -7.5t-110.5 -25t-78 -44t-30 -65.5t25 -62.5t64.5 -37.5t90 -20.5t101.5 -7.5t100 0t86 1q78 0 156 -11t140.5 -41t100.5 -85t38 -143q-2 -106 -57.5 -174t-137.5 -106t-177 -51t-177 -13q-145 0 -245.5 29.5 t-167.5 74.5t-104.5 96.5t-56.5 94.5z" glyph-name="s" horiz-adv-x="1312" unicode="s"/><glyph d="M68 1012h71v311h183v-311h198v-127h-198q0 -100 1 -200.5t1 -201.5q0 -117 27.5 -181t75.5 -96t110.5 -39t132.5 -7v-172h-105q-90 0 -168 28.5t-134 85t-89 142.5t-33 200q0 111 -1 220.5t-1 220.5h-71v127z" glyph-name="t" horiz-adv-x="745" unicode="t"/><glyph d="M657 160q76 0 140.5 27.5t111.5 75.5t73 112.5t26 136.5l-2 500l182 -2l2 -498q0 -111 -42 -207t-114.5 -167.5t-169 -112.5t-207.5 -41t-208 41t-169.5 112.5t-113.5 167.5t-41 207l2 498h180v-498q0 -72 26.5 -136.5t73 -112.5t110.5 -75.5t140 -27.5z" glyph-name="u" horiz-adv-x="1323" unicode="u"/><glyph d="M47 1010h205l395 -983h10l396 983h202l-411 -1010h-385z" glyph-name="v" horiz-adv-x="1314" unicode="v"/><glyph d="M1104 1010l330 -987h12l264 987h199l-273 -1010h-387l-239 748l-242 -748h-385l-274 1010h198l264 -987h15l329 987h189z" glyph-name="w" horiz-adv-x="2027" unicode="w"/><glyph d="M668 389l-389 -389h-232l508 516l-494 496h230l377 -377l374 377h230l-492 -498l504 -514h-225z" glyph-name="x" horiz-adv-x="1331" unicode="x"/><glyph d="M379 -338h145l144 338h-179l-421 1010h192l406 -990h8l416 990h190l-627 -1506h-274v158z" glyph-name="y" horiz-adv-x="1357" unicode="y"/><glyph d="M111 158l731 694l-725 4l4 150l956 2l-4 -158l-731 -694l766 -2l4 -156l-1003 -2z" glyph-name="z" horiz-adv-x="1210" unicode="z"/><glyph d="M133 727q-2 -2 -6 -2q-2 0 -4 -2q2 -2 4 -2t3 -1t3 -1q33 -43 45 -124t17 -171q4 -92 -3.5 -182t-7.5 -168q0 -66 31 -97.5t70 -44.5q45 -14 102 -10v-51q-72 -6 -127 14q-47 16 -87 59.5t-40 129.5q0 78 7 164t1 184q-4 53 -7 103t-10 88t-18.5 60.5t-29.5 22.5h-21v52 h23q16 0 27.5 22.5t17.5 61t10 89t8 103.5q4 78 -2 153.5t-6 139.5q0 84 40 127t87 59q55 20 127 15v-52q-57 4 -102 -10q-39 -12 -70 -43t-31 -96q0 -63 7.5 -140t3.5 -155q-4 -90 -16.5 -174t-45.5 -121z" glyph-name="braceleft" horiz-adv-x="540" unicode="{"/><glyph d="M150 0v1409h61v-1409h-61z" glyph-name="bar" horiz-adv-x="325" unicode="|"/><glyph d="M373 696h-21q-18 0 -29.5 -22.5t-18.5 -60.5t-11 -88t-6 -103q-6 -98 1 -184t7 -164q0 -86 -40 -129t-87 -60q-55 -20 -127 -14v51q55 -4 100 10q39 12 71 44t32 98q0 78 -7.5 168t-3.5 182q4 90 16.5 171t45.5 124h2q2 0 2 1t2 1t4 2q-2 2 -4 2q-6 0 -6 2 q-33 37 -45 121t-17 174q-4 78 3.5 154.5t7.5 140.5q0 66 -32 96.5t-71 42.5q-45 14 -100 10v52q72 6 127 -15q47 -16 87 -59t40 -127q0 -63 -6 -139t-2 -154q2 -53 6 -103.5t11 -89t18.5 -61t27.5 -22.5h23v-52z" glyph-name="braceright" horiz-adv-x="540" unicode="}"/><glyph d="M244 1225l35 20q53 31 110 48.5t115 17.5q57 0 112.5 -16.5t108.5 -45.5q57 -31 110.5 -43t106.5 -12t103.5 11.5t99.5 39.5l45 27l27 -41l-48 -29q-55 -35 -112.5 -47t-114.5 -12t-115.5 12t-113.5 43q-53 29 -105.5 45.5t-103.5 16.5q-53 0 -104.5 -16.5t-102.5 -45.5 l-27 -16z" glyph-name="asciitilde" unicode="~"/><glyph d="M96 -401l-2 1222h199l2 -1222h-199zM293 956h-203v52h203v-52z" glyph-name="exclamdown" horiz-adv-x="542" unicode="¡"/><glyph d="M682 1210h51v-163q88 -2 170 -26t150.5 -69t121 -112.5t80.5 -155.5l-159 -49q-37 115 -131.5 179.5t-231.5 70.5v-740q131 6 225.5 70t135.5 174l161 -51q-31 -86 -85 -150.5t-122.5 -107.5t-149.5 -66.5t-165 -25.5v-166h-51v164q-104 2 -201.5 36.5t-172.5 100 t-121 163t-46 226.5t46 227.5t122 164t173.5 101t199.5 39.5v166zM305 510q0 -90 32 -156.5t85 -111.5t120.5 -70t139.5 -27v738q-74 -4 -141.5 -30t-119.5 -73t-84 -114.5t-32 -155.5z" glyph-name="cent" horiz-adv-x="1400" unicode="¢"/><glyph d="M160 588v63h282q-10 47 -29.5 81t-39 72t-33.5 87t-14 127q0 20 7 57t28.5 81t59.5 90t98.5 84t147.5 62.5t205 24.5q166 0 284 -52t194 -114q88 -74 145 -166l-160 -104q-6 8 -33.5 48t-83 83t-141.5 78t-207 35q-111 0 -183.5 -30t-115.5 -72t-59 -88t-12 -79 q0 -53 11 -82.5t24 -54.5q16 -37 28 -80t15 -88h823v-63h-826q-4 -68 -31.5 -130.5t-76.5 -112.5t-118.5 -85t-158.5 -47v-10l1387 -4v-199h-1436v221q25 0 78 13.5t106.5 49t92.5 99t35 164.5l-2 41h-291z" glyph-name="sterling" horiz-adv-x="1697" unicode="£"/><glyph d="M670 340h-602v51h630l47 76h-677v51h514l-541 891h217l526 -874l523 874h223l-533 -891h459v-51h-487l-47 -76h534v-51h-563l-203 -340h-223z" glyph-name="yen" horiz-adv-x="1765" unicode="¥"/><glyph d="M338 352q10 -31 33.5 -66.5t69.5 -68.5t119 -53.5t183 -20.5q55 0 120 6.5t120 25t92 50t37 80.5q0 70 -56.5 97.5t-135.5 27.5q-51 0 -106.5 -1t-115.5 -1q-84 0 -170 9t-156.5 36t-115.5 74t-45 123q-2 74 38 129t105 92q-49 27 -82.5 63.5t-48.5 89.5q-12 49 -6 101 q10 72 57.5 123t118 84.5t159.5 49t183 15.5q84 0 166 -17.5t153.5 -54t127 -93t84.5 -134.5l-183 -45q-12 37 -41.5 71t-73.5 61.5t-105.5 43t-137.5 15.5q-63 0 -123.5 -7.5t-108 -25t-75 -45t-27.5 -68.5q0 -49 38 -75.5t94.5 -41t125 -17.5t131.5 -3q35 0 64.5 1 t58.5 -1q72 -2 140.5 -13.5t123 -38t88 -72.5t33.5 -116q0 -72 -35.5 -123t-91.5 -83q45 -25 75 -62t44 -92q12 -55 2 -119q-12 -84 -68.5 -138t-135.5 -85t-167 -43t-163 -12q-154 -2 -259.5 31.5t-173 85t-103.5 107.5t-52 97zM391 684q0 -35 33 -54.5t84 -30.5t114.5 -14 t122.5 -5q55 0 118 4t117 20.5t90 45t38 77.5q0 59 -88 80.5t-275 23.5q-66 0 -128 -6t-112 -23.5t-82 -46t-32 -71.5z" glyph-name="section" horiz-adv-x="1470" unicode="§"/><glyph d="M510 1116h317v-51h-317v51zM121 1116h317v-51h-317v51z" glyph-name="dieresis" unicode="¨"/><glyph d="M1096 598q-18 -57 -54 -99t-82.5 -71t-100.5 -43t-109 -14q-68 0 -131.5 20.5t-113.5 62.5t-80 105.5t-30 149.5q0 90 32 156.5t83 109.5t115.5 64.5t132.5 21.5q57 0 110.5 -15.5t97.5 -45t77.5 -74.5t52.5 -105l-52 -14q-29 102 -108.5 151.5t-177.5 49.5 q-57 0 -112.5 -18.5t-99.5 -55.5t-70.5 -93.5t-26.5 -131.5q0 -72 25.5 -126.5t67.5 -90t96 -53t112 -17.5q49 0 95 12t86 36t69.5 59.5t43.5 82.5zM238 719q0 -109 40.5 -203t111.5 -164.5t165 -111.5t203 -41q106 0 200.5 41t165 111.5t111.5 164.5t41 203 q0 106 -41 200.5t-111.5 165t-165 111.5t-200.5 41q-109 0 -203 -41t-165 -111.5t-111.5 -165t-40.5 -200.5zM184 719q0 119 45 222t122 180t181.5 122t225.5 45q119 0 222 -45t180 -122t122 -180t45 -222q0 -121 -45 -225.5t-122 -181t-180 -122t-222 -45.5 q-121 0 -225.5 45.5t-181.5 122t-122 181t-45 225.5z" glyph-name="copyright" horiz-adv-x="1513" unicode="©"/><glyph d="M670 1407v-537h-52v297q-18 -55 -44.5 -110.5t-66.5 -98.5t-95.5 -70.5t-128.5 -27.5q-86 0 -133.5 49t-47.5 113q0 84 58.5 130t140.5 72.5t170 41t147 37.5v51h-466v53h518zM287 911q70 0 124 27t95 68t68.5 93t43.5 101v60q-23 -8 -56.5 -16.5t-68 -17.5t-68.5 -16.5 t-58 -11.5q-88 -20 -150.5 -62t-62.5 -114q0 -45 33.5 -78t99.5 -33z" glyph-name="ordfeminine" horiz-adv-x="813" unicode="ª"/><glyph d="M866 1040l-657 -508l655 -507l-37 -37l-704 544l706 547zM1253 1040l-657 -508l655 -507l-37 -37l-704 544l707 547z" glyph-name="guillemotleft" horiz-adv-x="1437" unicode="«"/><glyph d="M578 651h249q78 16 115 64.5t37 99.5q0 59 -47 102.5t-115 43.5h-239v-310zM995 438l-147 162h-270v-162h-54v576h293q45 0 84 -16.5t67.5 -44t45 -63.5t16.5 -75q0 -66 -36 -116t-95 -72l170 -189h-74zM238 719q0 -109 40.5 -203t111.5 -164.5t165 -111.5t203 -41 q106 0 200.5 41t165 111.5t111.5 164.5t41 203q0 106 -41 200.5t-111.5 165t-165 111.5t-200.5 41q-109 0 -203 -41t-165 -111.5t-111.5 -165t-40.5 -200.5zM184 719q0 119 45 222t122 180t181.5 122t225.5 45q119 0 222 -45t180 -122t122 -180t45 -222q0 -121 -45 -225.5 t-122 -181t-180 -122t-222 -45.5q-121 0 -225.5 45.5t-181.5 122t-122 181t-45 225.5z" glyph-name="registered" horiz-adv-x="1513" unicode="®"/><glyph d="M90 1139q0 59 21.5 110t58.5 89t88 59.5t111 21.5q59 0 110 -21.5t88 -59.5t58.5 -89t21.5 -110t-21.5 -109.5t-58.5 -87.5t-88 -58.5t-110 -21.5t-110.5 21.5t-88.5 58.5t-58.5 87.5t-21.5 109.5zM143 1139q0 -47 17.5 -88t48.5 -72t72 -48.5t88 -17.5q49 0 90 17.5 t71.5 48.5t48 72t17.5 88q0 98 -64.5 163.5t-162.5 65.5q-47 0 -88 -17.5t-72 -48t-48.5 -72.5t-17.5 -91z" glyph-name="degree" horiz-adv-x="784" unicode="°"/><glyph d="M532 233v420h-411v64h411v405h64v-405h414v-64h-414v-420h-64zM150 51h831v-51h-831v51z" glyph-name="plusminus" horiz-adv-x="1130" unicode="±"/><glyph d="M266 1100l787 131l12 -51l-784 -129z" glyph-name="acute" unicode="´"/><glyph d="M1161 -281v1610h-82v-1610h-194v625h-180q-109 0 -204 43t-167 117t-113 173t-41 212q0 106 41 202.5t113 167t167 111.5t204 41q72 0 142.5 -1t141.5 -1h234v-1690h-62zM365 887q0 -74 28.5 -139.5t76.5 -114.5t113.5 -78t139.5 -29q41 0 81 -1t81 -1v719h-94.5 t-92.5 -2q-70 -4 -130 -32.5t-105 -77t-71.5 -111.5t-26.5 -133z" glyph-name="paragraph" horiz-adv-x="1499" unicode="¶"/><glyph d="M113 735h184v-182h-184v182z" glyph-name="periodcentered" horiz-adv-x="411" unicode="·"/><glyph d="M512 -195q51 -43 109.5 -61t117.5 -18q90 0 153.5 28.5t63.5 67.5q0 27 -20.5 44t-51 27.5t-65.5 13.5t-65 3q-20 0 -39 -1t-35 -1h-35v108h53v-57h56q37 0 83 -4t85 -18.5t65.5 -41t26.5 -71.5q0 -31 -22.5 -58.5t-60.5 -48t-87 -33t-105 -12.5q-70 0 -138.5 23.5 t-127.5 77.5z" glyph-name="cedilla" horiz-adv-x="1341" unicode="¸"/><glyph d="M78 1139q0 59 21.5 110t58.5 89t87 59.5t109 21.5t110.5 -21.5t89.5 -59.5t59.5 -89t21.5 -110t-21.5 -109.5t-59.5 -87.5t-89 -58.5t-111 -21.5q-59 0 -109 21.5t-87 58.5t-58.5 87.5t-21.5 109.5zM129 1139q0 -47 17.5 -88t48 -72t71.5 -48.5t88 -17.5q49 0 91 17.5 t73 48.5t48.5 72t17.5 88q0 98 -65.5 163.5t-164.5 65.5q-47 0 -88 -17.5t-71.5 -48t-48 -72.5t-17.5 -91z" glyph-name="ordmasculine" horiz-adv-x="741" unicode="º"/><glyph d="M113 1079l706 -547l-704 -544l-37 37l655 507l-657 508zM500 1079l706 -547l-704 -544l-37 37l655 507l-657 508z" glyph-name="guillemotright" horiz-adv-x="1437" unicode="»"/><glyph d="M535 1202q51 0 103 -1t103 -1q0 -59 1 -118.5t1 -118.5q0 -90 -52 -146.5t-130 -94.5t-168 -63.5t-168 -57.5t-128 -76t-48 -117q2 -72 50 -123.5t128 -84t180.5 -47t206.5 -14.5q127 2 221.5 30t160 72t105.5 99t60 111l199 -58q-78 -215 -268.5 -320.5t-483.5 -105.5 q-166 0 -304 28t-239.5 83t-160 139t-60.5 197v6q-2 106 48.5 171.5t127 105.5t166.5 65.5t168 52.5t129.5 63.5t51.5 100.5v223zM528 1411h215v-51h-215v51z" glyph-name="questiondown" horiz-adv-x="1652" unicode="¿"/><glyph d="M1278 481h-746l-202 -483h-201l580 1411h395l582 -1411h-205zM602 666h608l-299 718h-10zM1292 1536l-784 129l12 51l785 -131z" glyph-name="Agrave" horiz-adv-x="1794" unicode="À"/><glyph d="M508 1585l786 131l13 -51l-785 -129zM1278 481h-746l-202 -483h-201l580 1411h395l582 -1411h-205zM602 666h608l-299 718h-10z" glyph-name="Aacute" horiz-adv-x="1794" unicode="Á"/><glyph d="M1251 1538l-346 119q-84 -29 -173 -59.5t-175 -59.5l-16 47l364 123l365 -123zM1278 481h-746l-202 -483h-201l580 1411h395l582 -1411h-205zM602 666h608l-299 718h-10z" glyph-name="Acircumflex" horiz-adv-x="1794" unicode="Â"/><glyph d="M1278 481h-746l-202 -483h-201l580 1411h395l582 -1411h-205zM602 666h608l-299 718h-10zM420 1614l35 20q55 31 112.5 48.5t112.5 17.5q57 0 113.5 -16.5t109.5 -45.5q55 -31 109.5 -43t107.5 -12q51 0 102.5 11.5t98.5 39.5l45 27l29 -41l-47 -29q-57 -35 -114.5 -47 t-113.5 -12q-57 0 -115.5 12t-115.5 43q-53 29 -104.5 45.5t-104.5 16.5q-51 0 -103.5 -16.5t-101.5 -45.5l-26 -16z" glyph-name="Atilde" horiz-adv-x="1804" unicode="Ã"/><glyph d="M1278 481h-746l-202 -483h-201l580 1411h395l582 -1411h-205zM602 666h608l-299 718h-10zM551 1610h319v-51h-319v51zM942 1610h318v-51h-318v51z" glyph-name="Adieresis" horiz-adv-x="1794" unicode="Ä"/><glyph d="M1278 481h-746l-202 -483h-201l580 1411h395l582 -1411h-205zM602 666h608l-299 718h-10zM690 1755q0 45 16.5 86t46 69.5t68.5 46t86 17.5q45 0 86 -17.5t70 -46t46 -69.5t17 -86q0 -47 -17 -86t-46 -68.5t-70 -46t-86 -16.5q-47 0 -86 16.5t-68.5 46t-46 68.5t-16.5 86 zM741 1755q0 -70 48.5 -118t117.5 -48q70 0 119 48.5t49 117.5q0 70 -49 119t-119 49t-118 -49t-48 -119z" glyph-name="Aring" horiz-adv-x="1794" unicode="Å"/><glyph d="M1278 481h-746l-202 -481h-201l580 1409h1507v-190h-1042l178 -406h843v-178h-778l199 -447h600v-188h-735zM602 666h608l-299 718h-10z" glyph-name="AE" horiz-adv-x="2355" unicode="Æ"/><glyph d="M1548 459q-37 -117 -107.5 -205t-161.5 -147.5t-197.5 -91t-217.5 -33.5v-31h56q37 0 83 -4t84.5 -18.5t65.5 -41t27 -71.5q0 -31 -22.5 -58.5t-60.5 -48t-87 -33t-105 -12.5q-70 0 -138.5 23.5t-127.5 76.5l39 33q51 -43 109.5 -61.5t117.5 -18.5q90 0 153.5 29t63.5 68 q0 27 -20.5 44t-51 27.5t-65.5 13.5t-65 3q-20 0 -39 -1t-35 -1h-35v82q-129 6 -250 53t-214 135t-149.5 218t-56.5 304q0 184 62.5 321.5t165 227.5t232.5 134t263 44q115 0 222.5 -30.5t197.5 -92t158.5 -153.5t105.5 -215l-182 -56q-53 166 -182 265.5t-322 99.5 q-102 0 -197.5 -35t-169 -104.5t-117.5 -171t-44 -236.5q0 -133 44 -232.5t116.5 -164t166 -96t189.5 -31.5q94 0 177 25.5t149.5 70.5t115.5 108.5t74 141.5z" glyph-name="Ccedilla" horiz-adv-x="1720" unicode="Ç"/><glyph d="M147 1409h1254v-190h-1067v-406h1046v-178h-1046v-447h1067v-188h-1254v1409zM1128 1536l-784 129l12 51l785 -131z" glyph-name="Egrave" horiz-adv-x="1540" unicode="È"/><glyph d="M412 1587l784 131l12 -51l-784 -129zM147 1409h1254v-190h-1067v-406h1046v-178h-1046v-447h1067v-188h-1254v1409z" glyph-name="Eacute" horiz-adv-x="1540" unicode="É"/><glyph d="M147 1409h1254v-190h-1067v-406h1046v-178h-1046v-447h1067v-188h-1254v1409zM1130 1538l-346 119q-84 -29 -173 -59.5t-175 -59.5l-16 47l364 123l365 -123z" glyph-name="Ecircumflex" horiz-adv-x="1540" unicode="Ê"/><glyph d="M147 1409h1254v-190h-1067v-406h1046v-178h-1046v-447h1067v-188h-1254v1409zM426 1610h319v-51h-319v51zM817 1610h318v-51h-318v51z" glyph-name="Edieresis" horiz-adv-x="1540" unicode="Ë"/><glyph d="M338 1538l-199 33l11 51l198 -39zM332 0h-191l2 1419h195z" glyph-name="Igrave" horiz-adv-x="483" unicode="Ì"/><glyph d="M131 1581l199 39l10 -51l-199 -33zM332 0h-191l2 1419h195z" glyph-name="Iacute" horiz-adv-x="483" unicode="Í"/><glyph d="M332 0h-191l2 1419h195zM590 1538l-346 119q-84 -29 -173 -59.5t-175 -59.5l-17 47l365 123l364 -123z" glyph-name="Icircumflex" horiz-adv-x="483" unicode="Î"/><glyph d="M332 0h-191v1419h197zM-121 1610h320v-51h-320v51zM270 1610h318v-51h-318v51z" glyph-name="Idieresis" horiz-adv-x="483" unicode="Ï"/><glyph d="M55 752h197v657h592q137 0 268 -44t232.5 -132t164 -221t62.5 -312q0 -182 -64.5 -317t-170 -224t-239.5 -132t-272 -43h-573v716h-197v52zM440 752h361v-52h-361v-532l387 2q106 0 207 34t177.5 100.5t123.5 165.5t47 232q0 135 -47 233.5t-122.5 163t-174 96.5 t-198.5 32h-400v-475z" glyph-name="Eth" horiz-adv-x="1771" unicode="Ð"/><glyph d="M428 1614l35 20q55 31 112.5 48.5t112.5 17.5q57 0 113.5 -16.5t109.5 -45.5q55 -31 109.5 -43t107.5 -12q51 0 102.5 11.5t98.5 39.5l45 27l29 -41l-47 -29q-57 -35 -114.5 -47t-113.5 -12q-57 0 -115.5 12t-115.5 43q-53 29 -104.5 45.5t-104.5 16.5 q-51 0 -103.5 -16.5t-101.5 -45.5l-26 -16zM145 1409h414l877 -1386l2 1386h204l-10 -1409h-407l-877 1391l-10 -1391h-195z" glyph-name="Ntilde" horiz-adv-x="1785" unicode="Ñ"/><glyph d="M137 698q0 150 56.5 281t156 229.5t236.5 155.5t299 57q164 0 301 -57t237.5 -155.5t155.5 -229.5t55 -281q0 -147 -55 -277t-155.5 -228.5t-237.5 -154.5t-301 -56q-160 0 -296 56t-236.5 154.5t-158 228.5t-57.5 277zM313 698q0 -104 44 -200.5t121 -170t181.5 -117.5 t225.5 -44t225 44t181 117.5t120 170t43 200.5q0 106 -43 203.5t-120 171.5t-181 117t-225 43t-225.5 -43t-181.5 -117t-121 -171.5t-44 -203.5zM1266 1536l-785 129l13 51l784 -131z" glyph-name="Ograve" horiz-adv-x="1773" unicode="Ò"/><glyph d="M137 698q0 150 56.5 281t156 229.5t236.5 155.5t299 57q164 0 301 -57t237.5 -155.5t155.5 -229.5t55 -281q0 -147 -55 -277t-155.5 -228.5t-237.5 -154.5t-301 -56q-160 0 -296 56t-236.5 154.5t-158 228.5t-57.5 277zM313 698q0 -104 44 -200.5t121 -170t181.5 -117.5 t225.5 -44t225 44t181 117.5t120 170t43 200.5q0 106 -43 203.5t-120 171.5t-181 117t-225 43t-225.5 -43t-181.5 -117t-121 -171.5t-44 -203.5zM479 1585l787 131l12 -51l-784 -129z" glyph-name="Oacute" horiz-adv-x="1773" unicode="Ó"/><glyph d="M137 698q0 150 56.5 281t156 229.5t236.5 155.5t299 57q164 0 301 -57t237.5 -155.5t155.5 -229.5t55 -281q0 -147 -55 -277t-155.5 -228.5t-237.5 -154.5t-301 -56q-160 0 -296 56t-236.5 154.5t-158 228.5t-57.5 277zM313 698q0 -104 44 -200.5t121 -170t181.5 -117.5 t225.5 -44t225 44t181 117.5t120 170t43 200.5q0 106 -43 203.5t-120 171.5t-181 117t-225 43t-225.5 -43t-181.5 -117t-121 -171.5t-44 -203.5zM1249 1585l-18 -47l-346 119q-84 -29 -173 -59.5t-175 -59.5l-17 47l365 123zM1233 1538l18 47l-364 123l-365 -123l17 -47 q86 29 175 59.5t173 59.5z" glyph-name="Ocircumflex" horiz-adv-x="1773" unicode="Ô"/><glyph d="M137 698q0 150 56.5 281t156 229.5t236.5 155.5t299 57q164 0 301 -57t237.5 -155.5t155.5 -229.5t55 -281q0 -147 -55 -277t-155.5 -228.5t-237.5 -154.5t-301 -56q-160 0 -296 56t-236.5 154.5t-158 228.5t-57.5 277zM313 698q0 -104 44 -200.5t121 -170t181.5 -117.5 t225.5 -44t225 44t181 117.5t120 170t43 200.5q0 106 -43 203.5t-120 171.5t-181 117t-225 43t-225.5 -43t-181.5 -117t-121 -171.5t-44 -203.5zM399 1614l35 20q55 31 112.5 48.5t112.5 17.5q57 0 113.5 -16.5t110.5 -45.5q55 -31 109.5 -43t107.5 -12q51 0 102 11.5 t98 39.5l46 27l28 -41l-47 -29q-57 -35 -114.5 -47t-112.5 -12q-57 0 -115.5 12t-116.5 43q-53 29 -104 45.5t-105 16.5q-51 0 -103 -16.5t-101 -45.5l-27 -16z" glyph-name="Otilde" horiz-adv-x="1773" unicode="Õ"/><glyph d="M279 698q0 -104 44 -200.5t120.5 -170t181 -117.5t225.5 -44t225.5 44t181 117.5t119.5 170t43 200.5q0 106 -43 203.5t-119.5 171.5t-181 117t-225.5 43t-225.5 -43t-181 -117t-120.5 -171.5t-44 -203.5zM102 698q0 150 56.5 281t156 229.5t236.5 155.5t299 57 q164 0 301 -57t237.5 -155.5t155.5 -229.5t55 -281q0 -147 -55 -277t-155.5 -228.5t-237.5 -154.5t-301 -56q-160 0 -296 56t-236.5 154.5t-158 228.5t-57.5 277zM500 1610h319v-51h-319v51zM891 1610h317v-51h-317v51z" glyph-name="Odieresis" horiz-adv-x="1740" unicode="Ö"/><glyph d="M774 350l-627 629l46 43l626 -629zM141 389l629 629l43 -43l-629 -629z" glyph-name="multiply" horiz-adv-x="962" unicode="×"/><glyph d="M1083 1509l-22 -106q129 -29 234.5 -94.5t180 -158.5t116.5 -208t42 -244q0 -147 -55 -277t-155.5 -228.5t-237.5 -154.5t-301 -56q-31 0 -60.5 2t-58.5 6l-18 -92l-60 12l19 90q-125 29 -229.5 94.5t-180.5 157.5t-118 205.5t-42 240.5q0 150 56.5 281t156 229.5 t236.5 155.5t299 57q29 0 57.5 -2t56.5 -6l23 109zM1454 698q0 92 -31.5 176t-89 154t-137.5 118t-174 71l-217 -1047q18 -2 37.5 -3t42.5 -1q121 0 225 44t181 117.5t120 170t43 200.5zM313 698q0 -90 32 -173t89.5 -151.5t136 -118.5t172.5 -73l218 1045q-37 6 -76 6 q-121 0 -225.5 -43t-181.5 -117t-121 -171.5t-44 -203.5z" glyph-name="Oslash" horiz-adv-x="1773" unicode="Ø"/><glyph d="M338 1409l2 -682q0 -106 31.5 -205.5t95 -176.5t159 -124t222.5 -47t221 46t155.5 122t92.5 173t31 200l2 694h188v-698q0 -137 -43 -268.5t-129 -232.5t-216 -163.5t-304 -62.5q-180 0 -312.5 64.5t-219.5 170t-130 239.5t-43 273v678h197zM1223 1536l-785 129l13 51 l786 -131z" glyph-name="Ugrave" horiz-adv-x="1677" unicode="Ù"/><glyph d="M338 1409l2 -682q0 -106 31.5 -205.5t95 -176.5t159 -124t222.5 -47t221 46t155.5 122t92.5 173t31 200l2 694h188v-698q0 -137 -43 -268.5t-129 -232.5t-216 -163.5t-304 -62.5q-180 0 -312.5 64.5t-219.5 170t-130 239.5t-43 273v678h197zM473 1583l787 131l12 -51 l-785 -129z" glyph-name="Uacute" horiz-adv-x="1677" unicode="Ú"/><glyph d="M338 1409l2 -682q0 -106 31.5 -205.5t95 -176.5t159 -124t222.5 -47t221 46t155.5 122t92.5 173t31 200l2 694h188v-698q0 -137 -43 -268.5t-129 -232.5t-216 -163.5t-304 -62.5q-180 0 -312.5 64.5t-219.5 170t-130 239.5t-43 273v678h197zM1198 1538l-346 119 q-84 -29 -173 -59.5t-175 -59.5l-17 47l365 123l365 -123z" glyph-name="Ucircumflex" horiz-adv-x="1677" unicode="Û"/><glyph d="M338 1409l2 -682q0 -106 31.5 -205.5t95 -176.5t159 -124t222.5 -47t221 46t155.5 122t92.5 173t31 200l2 694h188v-698q0 -137 -43 -268.5t-129 -232.5t-216 -163.5t-304 -62.5q-180 0 -312.5 64.5t-219.5 170t-130 239.5t-43 273v678h197zM483 1610h320v-51h-320v51z M874 1610h318v-51h-318v51z" glyph-name="Udieresis" horiz-adv-x="1677" unicode="Ü"/><glyph d="M854 516h-190l-543 893h217l526 -874l522 874h224l-840 -1409h-223zM481 1585l787 131l12 -51l-784 -129z" glyph-name="Yacute" horiz-adv-x="1830" unicode="Ý"/><glyph d="M340 383q121 0 238.5 1t238.5 1q66 0 123 24.5t100 67.5t68 100.5t25 122.5q0 68 -25 126.5t-68 102.5t-100 69.5t-123 25.5h-477v-641zM340 197v-199q-47 0 -96 1t-97 1v1409h193v-215q125 0 250 1t250 1q100 0 189 -39t155.5 -106.5t104.5 -157.5t38 -193 q0 -104 -38 -195t-104.5 -160t-155.5 -108.5t-189 -39.5h-500z" glyph-name="Thorn" horiz-adv-x="1540" unicode="Þ"/><glyph d="M158 0l2 694q0 53 2 128t16.5 156t47 160t94 142t157.5 102t238 39q100 0 191 -31.5t160 -87t108.5 -132t39.5 -166.5q0 -98 -37.5 -164t-90 -105t-107.5 -55t-90 -18l420 -259v-403h-826v184l813 -4v6l-641 412v193q59 -6 126 0t122 27.5t91 62.5t36 106 q0 55 -26.5 101.5t-70.5 80t-101.5 53t-116.5 19.5q-123 0 -197 -44t-112.5 -111.5t-50 -147.5t-11.5 -154l-2 -784h-184z" glyph-name="germandbls" horiz-adv-x="1447" unicode="ß"/><glyph d="M956 850h-751v160h919v-1010h-172l11 512h-7q-33 -104 -84 -199.5t-118.5 -169t-150.5 -116.5t-179 -43q-68 0 -127 24.5t-103 66.5t-70 97t-26 117q0 90 46 152.5t121 104.5t168 67.5t188.5 45t183.5 37t151 41.5v113zM952 586q-53 -18 -123.5 -33.5t-144.5 -30 t-145.5 -32t-128 -43t-91 -62.5t-34.5 -90q0 -66 50 -112t128 -46t148.5 32t133 87t114.5 128t93 157v45zM283 1292l784 -129l-12 -51l-785 131z" glyph-name="agrave" horiz-adv-x="1249" unicode="à"/><glyph d="M956 850h-751v160h919v-1010h-172l11 512h-7q-33 -104 -84 -199.5t-118.5 -169t-150.5 -116.5t-179 -43q-68 0 -127 24.5t-103 66.5t-70 97t-26 117q0 90 46 152.5t121 104.5t168 67.5t188.5 45t183.5 37t151 41.5v113zM952 586q-53 -18 -123.5 -33.5t-144.5 -30 t-145.5 -32t-128 -43t-91 -62.5t-34.5 -90q0 -66 50 -112t128 -46t148.5 32t133 87t114.5 128t93 157v45zM283 1161l786 131l12 -51l-784 -129z" glyph-name="aacute" horiz-adv-x="1249" unicode="á"/><glyph d="M956 850h-751v160h919v-1010h-172l11 512h-7q-33 -104 -84 -199.5t-118.5 -169t-150.5 -116.5t-179 -43q-68 0 -127 24.5t-103 66.5t-70 97t-26 117q0 90 46 152.5t121 104.5t168 67.5t188.5 45t183.5 37t151 41.5v113zM952 586q-53 -18 -123.5 -33.5t-144.5 -30 t-145.5 -32t-128 -43t-91 -62.5t-34.5 -90q0 -66 50 -112t128 -46t148.5 32t133 87t114.5 128t93 157v45zM1012 1114l-346 119l-349 -119l-18 47l367 123l362 -123z" glyph-name="acircumflex" horiz-adv-x="1249" unicode="â"/><glyph d="M956 850h-751v160h919v-1010h-172l11 512h-7q-33 -104 -84 -199.5t-118.5 -169t-150.5 -116.5t-179 -43q-68 0 -127 24.5t-103 66.5t-70 97t-26 117q0 90 46 152.5t121 104.5t168 67.5t188.5 45t183.5 37t151 41.5v113zM952 586q-53 -18 -123.5 -33.5t-144.5 -30 t-145.5 -32t-128 -43t-91 -62.5t-34.5 -90q0 -66 50 -112t128 -46t148.5 32t133 87t114.5 128t93 157v45zM201 1225l35 20q55 31 112.5 48.5t112.5 17.5q57 0 113.5 -16.5t109.5 -45.5q55 -31 109.5 -43t107.5 -12q51 0 102.5 11.5t98.5 39.5l45 27l29 -41l-48 -29 q-57 -35 -114.5 -47t-112.5 -12q-57 0 -115.5 12t-115.5 43q-53 29 -104.5 45.5t-104.5 16.5q-51 0 -103.5 -16.5t-101.5 -45.5l-27 -16z" glyph-name="atilde" horiz-adv-x="1294" unicode="ã"/><glyph d="M956 850h-751v160h919v-1010h-172l11 512h-7q-33 -104 -84 -199.5t-118.5 -169t-150.5 -116.5t-179 -43q-68 0 -127 24.5t-103 66.5t-70 97t-26 117q0 90 46 152.5t121 104.5t168 67.5t188.5 45t183.5 37t151 41.5v113zM952 586q-53 -18 -123.5 -33.5t-144.5 -30 t-145.5 -32t-128 -43t-91 -62.5t-34.5 -90q0 -66 50 -112t128 -46t148.5 32t133 87t114.5 128t93 157v45zM711 1210h317v-51h-317v51zM319 1210h320v-51h-320v51z" glyph-name="adieresis" horiz-adv-x="1249" unicode="ä"/><glyph d="M956 850h-751v160h919v-1010h-172l11 512h-7q-33 -104 -84 -199.5t-118.5 -169t-150.5 -116.5t-179 -43q-68 0 -127 24.5t-103 66.5t-70 97t-26 117q0 90 46 152.5t121 104.5t168 67.5t188.5 45t183.5 37t151 41.5v113zM952 586q-53 -18 -123.5 -33.5t-144.5 -30 t-145.5 -32t-128 -43t-91 -62.5t-34.5 -90q0 -66 50 -112t128 -46t148.5 32t133 87t114.5 128t93 157v45zM453 1346q0 45 16 86t46 69.5t69 46t86 17.5q45 0 86 -17.5t69.5 -46t46 -69.5t17.5 -86q0 -47 -17.5 -86t-46 -69t-69.5 -46.5t-86 -16.5q-47 0 -86 16.5t-69 46.5 t-46 69t-16 86zM504 1346q0 -70 48 -118t118 -48t119 48t49 118t-49.5 118.5t-118.5 48.5q-70 0 -118 -48.5t-48 -118.5z" glyph-name="aring" horiz-adv-x="1249" unicode="å"/><glyph d="M952 0l11 512h-7q-33 -104 -84 -199.5t-118.5 -169t-150.5 -116.5t-179 -43q-68 0 -127 24.5t-103 66.5t-70 97t-26 117q0 90 46 152.5t121 104.5t168 67.5t188.5 45t183.5 37t151 41.5v113h-751v160h919v-60q72 47 158 72t174 25q109 0 214.5 -34t186 -105.5t127 -181.5 t37.5 -261l-911 -2q2 -70 29.5 -128.5t78 -101.5t121 -66.5t158.5 -23.5t148.5 22.5t99.5 54.5t61.5 68t34.5 62l182 -61q-18 -41 -53 -93.5t-97.5 -99.5t-156.5 -79.5t-231 -32.5q-113 0 -203 23.5t-158 64.5v-72h-172zM1473 889q-61 0 -123 -18.5t-112 -55.5t-85 -93 t-43 -130h733q-6 76 -42 131t-88 92t-115.5 55.5t-124.5 18.5zM285 295q0 -66 50 -112t128 -46t148.5 32t133 87t114.5 128t93 157v45q-53 -18 -123.5 -33.5t-144.5 -30t-145.5 -32t-128 -43t-91 -62.5t-34.5 -90z" glyph-name="ae" horiz-adv-x="2158" unicode="æ"/><glyph d="M1243 338q-31 -88 -87 -153.5t-128 -108.5t-154.5 -65.5t-168.5 -24.5v-27h55q37 0 83 -4t85 -18.5t65.5 -41t26.5 -71.5q0 -31 -22.5 -58.5t-60.5 -48t-87 -33t-105 -12.5q-70 0 -138 23.5t-128 77.5l39 32q51 -43 109.5 -61t117.5 -18q90 0 154 28.5t64 67.5 q0 27 -20.5 44t-51.5 27.5t-65.5 13.5t-65.5 3q-20 0 -39 -1t-35 -1h-35v80q-102 6 -196.5 40.5t-166 99.5t-115.5 161t-44 223q0 135 50 236.5t131 167t184.5 98.5t210.5 33q92 0 176 -23t154.5 -68t123.5 -112.5t84 -159.5l-160 -49q-39 119 -137 184.5t-246 65.5 q-78 0 -150.5 -23.5t-130 -71t-92 -118t-34.5 -162.5t34.5 -160.5t91 -114t129.5 -68t146 -22.5q141 0 242.5 63.5t144.5 180.5z" glyph-name="ccedilla" horiz-adv-x="1400" unicode="ç"/><glyph d="M1241 289q-18 -41 -53 -93.5t-97.5 -99.5t-156.5 -79.5t-232 -32.5q-150 0 -260 39.5t-183 110.5t-108.5 167t-35.5 207q0 137 49 238.5t128 168t179 99.5t203 33q109 0 214 -34t186 -105.5t127 -181.5t38 -261l-936 -2q2 -70 29.5 -128.5t80 -101.5t125 -66.5 t164.5 -23.5q90 0 153 22.5t103.5 54.5t64.5 68t36 62zM678 889q-66 0 -128.5 -18.5t-113.5 -55.5t-87 -93t-46 -130h758q-6 76 -43 131t-91.5 92t-120 55.5t-128.5 18.5zM295 1292l784 -129l-12 -51l-784 131z" glyph-name="egrave" horiz-adv-x="1357" unicode="è"/><glyph d="M1241 289q-18 -41 -53 -93.5t-97.5 -99.5t-156.5 -79.5t-232 -32.5q-150 0 -260 39.5t-183 110.5t-108.5 167t-35.5 207q0 137 49 238.5t128 168t179 99.5t203 33q109 0 214 -34t186 -105.5t127 -181.5t38 -261l-936 -2q2 -70 29.5 -128.5t80 -101.5t125 -66.5 t164.5 -23.5q90 0 153 22.5t103.5 54.5t64.5 68t36 62zM678 889q-66 0 -128.5 -18.5t-113.5 -55.5t-87 -93t-46 -130h758q-6 76 -43 131t-91.5 92t-120 55.5t-128.5 18.5zM281 1161l784 131l12 -51l-784 -129z" glyph-name="eacute" horiz-adv-x="1357" unicode="é"/><glyph d="M1241 289q-18 -41 -53 -93.5t-97.5 -99.5t-156.5 -79.5t-232 -32.5q-150 0 -260 39.5t-183 110.5t-108.5 167t-35.5 207q0 137 49 238.5t128 168t179 99.5t203 33q109 0 214 -34t186 -105.5t127 -181.5t38 -261l-936 -2q2 -70 29.5 -128.5t80 -101.5t125 -66.5 t164.5 -23.5q90 0 153 22.5t103.5 54.5t64.5 68t36 62zM678 889q-66 0 -128.5 -18.5t-113.5 -55.5t-87 -93t-46 -130h758q-6 76 -43 131t-91.5 92t-120 55.5t-128.5 18.5zM1028 1114l-346 119l-348 -119l-19 47l367 123l362 -123z" glyph-name="ecircumflex" horiz-adv-x="1357" unicode="ê"/><glyph d="M1241 289q-18 -41 -53 -93.5t-97.5 -99.5t-156.5 -79.5t-232 -32.5q-150 0 -260 39.5t-183 110.5t-108.5 167t-35.5 207q0 137 49 238.5t128 168t179 99.5t203 33q109 0 214 -34t186 -105.5t127 -181.5t38 -261l-936 -2q2 -70 29.5 -128.5t80 -101.5t125 -66.5 t164.5 -23.5q90 0 153 22.5t103.5 54.5t64.5 68t36 62zM678 889q-66 0 -128.5 -18.5t-113.5 -55.5t-87 -93t-46 -130h758q-6 76 -43 131t-91.5 92t-120 55.5t-128.5 18.5zM715 1210h317v-51h-317v51zM324 1210h319v-51h-319v51z" glyph-name="edieresis" horiz-adv-x="1357" unicode="ë"/><glyph d="M125 1202l219 -43l-8 -47l-223 45zM143 1012h189v-1012h-189v1012z" glyph-name="igrave" horiz-adv-x="454" unicode="ì"/><glyph d="M131 1159l234 45l10 -45l-234 -47zM143 1012h187v-1012h-187v1012z" glyph-name="iacute" horiz-adv-x="452" unicode="í"/><glyph d="M143 1012h187v-1012h-189zM582 1114l-346 119l-349 -119l-18 47l367 123l362 -123z" glyph-name="icircumflex" horiz-adv-x="452" unicode="î"/><glyph d="M23 1210h188v-51h-188v51zM274 1210h189v-51h-189v51zM143 1012h187v-1012h-187v1012z" glyph-name="idieresis" horiz-adv-x="452" unicode="ï"/><glyph d="M1305 1419v-174h206v-51h-206l2 -1194h-185l2 385h-8q-25 -100 -72 -176t-112.5 -126t-146 -74.5t-169.5 -24.5q-92 0 -181 33.5t-158.5 99t-112.5 165t-43 232.5q0 137 43 237.5t113.5 166t159.5 97.5t181 32q90 0 171 -26t145.5 -77t111 -128t70.5 -177h8l-4 555h-188 v51h188l-2 174h187zM1116 516q0 57 -26.5 124t-79 123t-130 93t-182.5 37q-104 0 -180 -34t-125 -89t-72.5 -122.5t-23.5 -135.5t25.5 -135.5t77 -119.5t128 -85t177.5 -33q106 0 183 37t128 93.5t75.5 122t24.5 124.5z" glyph-name="eth" horiz-adv-x="1515" unicode="ð"/><glyph d="M141 1010h189l-4 -394h8q20 92 63 171t108.5 136.5t151.5 90.5t195 33q92 0 178 -30t152.5 -91.5t106.5 -153.5t40 -215l2 -557h-194v516q0 76 -25 143.5t-73 118.5t-119.5 81t-165.5 30q-109 0 -189 -42t-132 -102.5t-77.5 -128t-25.5 -118.5l-2 -498h-187v1010z M262 1225l35 20q55 31 112.5 48.5t112.5 17.5q57 0 113.5 -16.5t109.5 -45.5q55 -31 109.5 -43t108.5 -12q51 0 102 11.5t98 39.5l45 27l29 -41l-47 -29q-57 -35 -114.5 -47t-112.5 -12q-57 0 -116 12t-116 43q-53 29 -104.5 45.5t-104.5 16.5q-51 0 -103 -16.5t-102 -45.5 l-26 -16z" glyph-name="ntilde" horiz-adv-x="1456" unicode="ñ"/><glyph d="M125 514q0 111 44 207t120 168t177 113.5t218 41.5t218.5 -41.5t177 -113.5t119.5 -168t44 -207t-44 -207t-119.5 -167.5t-177 -113.5t-218.5 -42t-218 42t-177 113.5t-120 167.5t-44 207zM268 514q0 -70 33 -133.5t90.5 -112.5t132 -78.5t160.5 -29.5q84 0 159 29.5 t130 78.5t88 112.5t33 133.5t-33 133.5t-88 111.5t-130 76.5t-159 28.5q-86 0 -160.5 -28.5t-132 -76.5t-90.5 -111.5t-33 -133.5zM297 1292l784 -129l-12 -51l-784 131z" glyph-name="ograve" horiz-adv-x="1396" unicode="ò"/><glyph d="M125 514q0 111 44 207t120 168t177 113.5t218 41.5t218.5 -41.5t177 -113.5t119.5 -168t44 -207t-44 -207t-119.5 -167.5t-177 -113.5t-218.5 -42t-218 42t-177 113.5t-120 167.5t-44 207zM268 514q0 -70 33 -133.5t90.5 -112.5t132 -78.5t160.5 -29.5q84 0 159 29.5 t130 78.5t88 112.5t33 133.5t-33 133.5t-88 111.5t-130 76.5t-159 28.5q-86 0 -160.5 -28.5t-132 -76.5t-90.5 -111.5t-33 -133.5zM281 1161l784 131l12 -51l-784 -129z" glyph-name="oacute" horiz-adv-x="1396" unicode="ó"/><glyph d="M268 514q0 -70 33 -133.5t90.5 -112.5t132 -78.5t160.5 -29.5q84 0 159 29.5t130 78.5t88 112.5t33 133.5t-33 133.5t-88 111.5t-130 76.5t-159 28.5q-86 0 -160.5 -28.5t-132 -76.5t-90.5 -111.5t-33 -133.5zM125 514q0 111 44 207t120 168t177 113.5t218 41.5 t218.5 -41.5t177 -113.5t119.5 -168t44 -207t-44 -207t-119.5 -167.5t-177 -113.5t-218.5 -42t-218 42t-177 113.5t-120 167.5t-44 207zM1028 1114l-346 119l-348 -119l-19 47l367 123l362 -123z" glyph-name="ocircumflex" horiz-adv-x="1396" unicode="ô"/><glyph d="M268 514q0 -70 33 -133.5t90.5 -112.5t132 -78.5t160.5 -29.5q84 0 159 29.5t130 78.5t88 112.5t33 133.5t-33 133.5t-88 111.5t-130 76.5t-159 28.5q-86 0 -160.5 -28.5t-132 -76.5t-90.5 -111.5t-33 -133.5zM125 514q0 111 44 207t120 168t177 113.5t218 41.5 t218.5 -41.5t177 -113.5t119.5 -168t44 -207t-44 -207t-119.5 -167.5t-177 -113.5t-218.5 -42t-218 42t-177 113.5t-120 167.5t-44 207zM221 1225l35 20q55 31 112.5 48.5t112.5 17.5q57 0 113.5 -16.5t110.5 -45.5q55 -31 109 -43t108 -12q51 0 102 11.5t98 39.5l45 27 l29 -41l-47 -29q-57 -35 -114.5 -47t-112.5 -12q-57 0 -115.5 12t-116.5 43q-53 29 -104 45.5t-105 16.5q-51 0 -103 -16.5t-102 -45.5l-26 -16z" glyph-name="otilde" horiz-adv-x="1396" unicode="õ"/><glyph d="M268 514q0 -70 33 -133.5t90.5 -112.5t132 -78.5t160.5 -29.5q84 0 159 29.5t130 78.5t88 112.5t33 133.5t-33 133.5t-88 111.5t-130 76.5t-159 28.5q-86 0 -160.5 -28.5t-132 -76.5t-90.5 -111.5t-33 -133.5zM125 514q0 111 44 207t120 168t177 113.5t218 41.5 t218.5 -41.5t177 -113.5t119.5 -168t44 -207t-44 -207t-119.5 -167.5t-177 -113.5t-218.5 -42t-218 42t-177 113.5t-120 167.5t-44 207zM700 1210h318v-51h-318v51zM309 1210h320v-51h-320v51z" glyph-name="odieresis" horiz-adv-x="1396" unicode="ö"/><glyph d="M125 514q0 111 44 207t120 168t177 113.5t218 41.5q16 0 33.5 -1t34.5 -3l28 134l60 -11l-29 -133q92 -20 172 -68.5t137.5 -117t90 -152.5t32.5 -178q0 -111 -44 -207t-119.5 -167.5t-177 -113.5t-218.5 -42q-49 0 -88 6l-29 -137l-57 12l27 135q-90 23 -165 72 t-130.5 116.5t-86 150.5t-30.5 175zM1094 514q0 59 -25 114.5t-68 100.5t-101 78t-126 47l-143 -692q14 -2 26.5 -2h26.5q84 0 159 29.5t130 78.5t88 112.5t33 133.5zM268 514q0 -57 22.5 -111.5t63.5 -100.5t97.5 -80t121.5 -50l142 690h-32.5t-33.5 -2 q-78 -4 -147.5 -33.5t-121.5 -77t-82 -108.5t-30 -127z" glyph-name="oslash" horiz-adv-x="1396" unicode="ø"/><glyph d="M264 1292l785 -129l-13 -51l-784 131zM307 1010v-498q0 -72 26.5 -136.5t73 -112.5t111 -75.5t139.5 -27.5q76 0 140.5 27.5t111.5 75.5t73 112.5t26 136.5l-2 500l182 -2l2 -498q0 -111 -42 -207t-114.5 -167.5t-169 -112.5t-207.5 -41t-208 41t-169.5 112.5 t-113.5 167.5t-41 207l2 498h180z" glyph-name="ugrave" horiz-adv-x="1323" unicode="ù"/><glyph d="M307 1010v-498q0 -72 26.5 -136.5t73 -112.5t111 -75.5t139.5 -27.5q76 0 140.5 27.5t111.5 75.5t73 112.5t26 136.5l-2 500l182 -2l2 -498q0 -111 -42 -207t-114.5 -167.5t-169 -112.5t-207.5 -41t-208 41t-169.5 112.5t-113.5 167.5t-41 207l2 498h180zM256 1161 l784 131l13 -51l-785 -129z" glyph-name="uacute" horiz-adv-x="1323" unicode="ú"/><glyph d="M307 1010v-498q0 -72 26.5 -136.5t73 -112.5t111 -75.5t139.5 -27.5q76 0 140.5 27.5t111.5 75.5t73 112.5t26 136.5l-2 500l182 -2l2 -498q0 -111 -42 -207t-114.5 -167.5t-169 -112.5t-207.5 -41t-208 41t-169.5 112.5t-113.5 167.5t-41 207l2 498h180zM1008 1114 l-346 119l-349 -119l-18 47l367 123l362 -123z" glyph-name="ucircumflex" horiz-adv-x="1323" unicode="û"/><glyph d="M657 160q76 0 140.5 27.5t111.5 75.5t73 112.5t26 136.5l-2 500l182 -2l2 -498q0 -111 -42 -207t-114.5 -167.5t-169 -112.5t-207.5 -41t-208 41t-169.5 112.5t-113.5 167.5t-41 207l2 498h180v-498q0 -72 26.5 -136.5t73 -112.5t110.5 -75.5t140 -27.5zM694 1210h318 v-51h-318v51zM303 1210h320v-51h-320v51z" glyph-name="udieresis" horiz-adv-x="1323" unicode="ü"/><glyph d="M379 -338h145l144 338h-179l-421 1010h192l406 -990h8l416 990h190l-627 -1506h-274v158zM276 1161l785 131l12 -51l-784 -129z" glyph-name="yacute" horiz-adv-x="1441" unicode="ý"/><glyph d="M332 514q0 -57 25.5 -122.5t76.5 -122t130 -93.5t186 -37q100 0 174.5 33t125 85t76 119.5t25.5 137.5t-24.5 137.5t-76 120.5t-129 87t-184.5 34q-102 0 -178 -37t-127 -94t-75.5 -124t-24.5 -124zM326 383l4 -881h-187q0 479 -1 953.5t-1 953.5h185v-770h6 q55 207 189 304t331 97q111 0 199 -45t149.5 -118.5t94 -168t32.5 -192.5q0 -119 -32.5 -210t-88 -155.5t-128 -103.5t-150.5 -51t-150 -4q-166 16 -284.5 112.5t-161.5 278.5h-6z" glyph-name="thorn" horiz-adv-x="1525" unicode="þ"/><glyph d="M379 -338h145l144 338h-179l-421 1010h192l406 -990h8l416 990h190l-627 -1506h-274v158zM711 1210h317v-51h-317v51zM319 1210h320v-51h-320v51z" glyph-name="ydieresis" horiz-adv-x="1441" unicode="ÿ"/><glyph d="M143 1012h187v-1012h-189q0 256 1 507t1 505z" glyph-name="dotlessi" horiz-adv-x="450" unicode="ı"/><glyph d="M-98 571l280 117v721h193v-639l383 162l18 -51l-401 -168v-520h1061v-193h-1254v633l-262 -109z" glyph-name="Lslash" horiz-adv-x="1650" unicode="Ł"/><glyph d="M344 633l-182 -76l-21 47l203 84l2 731h186l-4 -653l306 127l18 -49l-324 -135l-4 -709h-182z" glyph-name="lslash" horiz-adv-x="1138" unicode="ł"/><glyph d="M1362 139q-96 -74 -216 -115.5t-261 -41.5q-160 0 -296 56t-236.5 154.5t-158 228.5t-57.5 277q0 150 56.5 281t156 229.5t236.5 155.5t299 57q141 0 261 -42t216 -115v145h1069v-190h-883v-406h862v-178h-862v-447h883v-188h-1069v139zM885 166q154 0 277.5 67.5 t199.5 176.5v579q-76 111 -200 177.5t-277 66.5q-121 0 -225.5 -43t-181.5 -117t-121 -171t-44 -204q0 -104 44 -200.5t121 -170t181.5 -117.5t225.5 -44z" glyph-name="OE" horiz-adv-x="2566" unicode="Œ"/><glyph d="M121 514q0 111 41 207t113.5 168t169 113.5t206.5 41.5q131 0 242 -64.5t176 -170.5q70 121 186.5 179.5t245.5 58.5q102 0 202.5 -34t177.5 -105.5t121 -182.5t36 -262h-879q2 -70 28.5 -128.5t74 -101.5t114 -66.5t150.5 -23.5q92 0 153.5 26t99.5 61.5t57 74.5t28 64 l178 -58q-14 -39 -45 -95t-90.5 -107.5t-151.5 -88t-229 -36.5q-172 0 -285 62.5t-172 166.5q-68 -104 -177.5 -166.5t-240.5 -62.5q-111 0 -207 42t-168.5 113.5t-113.5 167.5t-41 207zM260 514q0 -70 31 -133.5t84 -111.5t124.5 -76.5t151.5 -28.5q68 0 136.5 24.5 t123 70.5t88 109.5t33.5 141.5q0 70 -28.5 133.5t-80 111.5t-121 76.5t-151.5 28.5q-80 0 -151.5 -28.5t-124.5 -75.5t-84 -109.5t-31 -132.5zM1505 887q-78 0 -138 -23.5t-104 -63.5t-70 -93.5t-32 -112.5h692q-4 59 -30.5 112.5t-71.5 93.5t-107.5 63.5t-138.5 23.5z" glyph-name="oe" horiz-adv-x="2181" unicode="œ"/><glyph d="M1436 954q-47 135 -168 210t-340 77q-98 0 -191.5 -12t-166 -40t-117.5 -71t-47 -104t39.5 -100.5t112.5 -61t163 -30.5t188 -11q156 -4 297.5 -16.5t247 -51t166.5 -115.5t59 -210q-4 -104 -48 -185t-137 -136.5t-238.5 -84t-350.5 -28.5t-344 41t-228 110.5 t-137.5 158.5t-70.5 185l190 56q14 -66 47 -130.5t100.5 -116.5t175 -85t271.5 -33q150 0 257.5 15.5t175 46t99.5 74.5t34 102q2 70 -35 111.5t-100.5 66t-145.5 34t-170 11.5l-174 4q-117 2 -233.5 18.5t-210 58.5t-150.5 114.5t-55 183.5q0 102 55 179t151.5 128 t229.5 76.5t291 25.5q270 0 452.5 -101t259.5 -308zM1294 1661l-364 -123l-365 123l17 47l348 -119l346 119z" glyph-name="Scaron" horiz-adv-x="1939" unicode="Š"/><glyph d="M268 342q12 -29 38 -63.5t72 -65.5t116.5 -51.5t173.5 -20.5q57 0 122.5 7.5t121 28t92 56t36.5 93.5q0 70 -56 96.5t-134 26.5h-219q-84 0 -169 12t-155.5 43t-116 85t-45.5 140q0 80 45.5 138.5t121 95t171 54t195.5 17.5q80 0 157.5 -16.5t145.5 -50t122 -83.5 t85 -120l-166 -64q-37 86 -133 131.5t-223 45.5q-68 0 -130.5 -7.5t-110.5 -25t-77 -44t-29 -65.5t25 -62.5t65 -37.5t90 -20.5t101 -7.5t100.5 0t85.5 1q78 0 156 -11t139.5 -41t100.5 -85t37 -143q0 -106 -55.5 -174t-137.5 -106t-178 -51t-178 -13q-145 0 -245.5 29.5 t-166 74.5t-103.5 96.5t-57 94.5zM1042 1253l-364 -123l-365 123l17 47q86 -29 175 -59.5t173 -58.5l346 118z" glyph-name="scaron" horiz-adv-x="1404" unicode="š"/><glyph d="M854 516h-190l-543 893h217l526 -874l522 874h224l-840 -1409h-223zM502 1610h319v-51h-319v51zM893 1610h317v-51h-317v51z" glyph-name="Ydieresis" horiz-adv-x="1830" unicode="Ÿ"/><glyph d="M1630 1409l-6 -207l-1221 -1026l1260 10l-2 -186h-1518v205l1229 1024h-1216v180h1474zM1300 1661l-364 -123l-365 123l17 47l348 -119l346 119z" glyph-name="Zcaron" horiz-adv-x="1910" unicode="Ž"/><glyph d="M1100 1008l-4 -158l-731 -694l765 -2l5 -156l-1004 -2l2 162l731 694l-725 4l4 150zM997 1253l-364 -123l-365 123l17 47q86 -29 175 -59.5t173 -58.5l346 118z" glyph-name="zcaron" horiz-adv-x="1280" unicode="ž"/><glyph d="M432 -410h-354v140h174v1042h-107v152h107v497q92 0 184 -1t185 -1v-139h-189l2 -356h187v-152h-187z" glyph-name="florin" horiz-adv-x="831" unicode="ƒ"/><glyph d="M999 1069l-346 119q-84 -29 -173 -59.5t-175 -59.5l-16 47l364 123l365 -123z" glyph-name="circumflex" unicode="ˆ"/><glyph glyph-name="caron" horiz-adv-x="1290" unicode="ˇ"/><glyph d="M446 1339q0 -41 28 -77.5t76 -64.5t113.5 -43t141.5 -15t142.5 15t115.5 43t76.5 64.5t27.5 77.5h54q0 -53 -33 -99t-89.5 -80t-132 -53.5t-161.5 -19.5q-88 0 -163 19.5t-130 53.5t-87 80t-32 99h53z" glyph-name="breve" unicode="˘"/><glyph d="M133 1116h186v-51h-186v51z" glyph-name="dotaccent" unicode="˙"/><glyph d="M463 1288q0 45 16.5 86t46 70t68.5 46t86 17q45 0 86 -17t69.5 -46t46 -70t17.5 -86q0 -47 -17.5 -86t-46 -68.5t-69.5 -46t-86 -16.5q-47 0 -86 16.5t-68.5 46t-46 68.5t-16.5 86zM514 1288q0 -70 48 -118t118 -48t119 48.5t49 117.5q0 70 -49 119t-119 49t-118 -49 t-48 -119z" glyph-name="ring" unicode="˚"/><glyph d="M244 1225l35 20q53 31 110 48.5t115 17.5q57 0 112.5 -16.5t108.5 -45.5q57 -31 110.5 -43t106.5 -12t103.5 11.5t99.5 39.5l45 27l27 -41l-48 -29q-55 -35 -112.5 -47t-114.5 -12t-115.5 12t-113.5 43q-53 29 -105.5 45.5t-103.5 16.5q-53 0 -104.5 -16.5t-102.5 -45.5 l-27 -16z" glyph-name="tilde" unicode="˜"/><glyph d="M1225 518h-1061v51h1061v-51z" glyph-name="endash" horiz-adv-x="1388" unicode="–"/><glyph d="M1526 518h-1362v51h1362v-51z" glyph-name="emdash" horiz-adv-x="1689" unicode="—"/><glyph d="M141 877v477h70v-477h-70z" glyph-name="quoteleft" horiz-adv-x="354" unicode="‘"/><glyph d="M141 877v477h70v-477h-70z" glyph-name="quoteright" horiz-adv-x="354" unicode="’"/><glyph d="M174 184h184v-184q0 -66 -38.5 -124t-102.5 -99l-29 45q53 33 86 80t33 98h-133v184z" glyph-name="quotesinglbase" horiz-adv-x="425" unicode="‚"/><glyph d="M616 852h-184v184q0 66 39 124.5t102 99.5l29 -46q-53 -33 -86 -80t-33 -98h133v-184zM324 852h-185v184q0 66 39 124.5t103 99.5l28 -46q-53 -33 -86 -80t-33 -98h134v-184z" glyph-name="quotedblleft" horiz-adv-x="839" unicode="“"/><glyph d="M139 1260h185v-185q0 -66 -39 -124t-103 -99l-28 45q53 33 85.5 80t32.5 98h-133v185zM432 1260h184v-185q0 -66 -38.5 -124t-102.5 -99l-29 45q53 33 86 80t33 98h-133v185z" glyph-name="quotedblright" horiz-adv-x="839" unicode="”"/><glyph d="M453 184h184v-184q0 -66 -39 -124t-102 -99l-29 45q53 33 86 80t33 98h-133v184zM174 184h184v-184q0 -66 -38.5 -124t-102.5 -99l-29 45q53 33 86 80t33 98h-133v184z" glyph-name="quotedblbase" horiz-adv-x="786" unicode="„"/><glyph d="M991 311v-51h-854v51h854zM524 0v1409h64v-1409h-64z" glyph-name="dagger" horiz-adv-x="1236" unicode="†"/><glyph d="M143 739h185v-184h-185v184z" glyph-name="bullet" horiz-adv-x="464" unicode="•"/><glyph d="M143 184h183v-184h-183v184zM465 184h184v-184h-184v184zM803 184h184v-184h-184v184z" glyph-name="ellipsis" horiz-adv-x="1107" unicode="…"/><glyph d="M477 1518l-336 -1612l-57 12l334 1612z" glyph-name="fraction" horiz-adv-x="538" unicode="⁄"/><glyph d="M1583 279q-53 -74 -125 -130.5t-154.5 -93.5t-175 -55t-184.5 -18q-133 0 -260 40.5t-228.5 121.5t-167 204t-75.5 289h-72v51h70v4q0 16 1 32.5t1 33.5h-72v51h76q20 154 92 268.5t175.5 190t227.5 113.5t253 38q186 0 347 -72.5t265 -222.5l-170 -98 q-72 100 -185.5 152.5t-260.5 52.5q-96 0 -186.5 -26.5t-164 -80t-125 -132.5t-69.5 -183h696v-51h-700q-2 -18 -3 -34.5t-1 -35.5h704v-51l-702 -2q8 -119 58 -207t125 -145.5t167 -85t188 -27.5q147 0 271 56.5t200 158.5z" glyph-name="Euro" horiz-adv-x="1681" unicode="€"/><glyph d="M860 1409v-51h-307v-619h-51v619h-318v51h676zM1303 743h-54l-194 660h-4l-97 -660h-51l94 666h113l168 -588l180 588h98l97 -666h-51l-93 660h-4z" glyph-name="trademark" horiz-adv-x="1837" unicode="™"/><glyph d="M793 1409q129 0 240.5 -52t194.5 -141.5t131 -209t48 -254.5q0 -158 -49 -272.5t-125 -188.5t-164 -110t-168 -36v-4l561 4v-143h-579v158q80 0 150.5 44t122.5 118.5t82 172t30 203.5q0 92 -27 185.5t-84 169t-147 124t-217 48.5t-217.5 -48.5t-147.5 -124t-84 -168.5 t-27 -186q0 -106 30 -203.5t81 -172t122 -118.5t150 -44v-158h-579v143l561 -4v4q-80 0 -168 36t-164 110t-125 188.5t-49 272.5q0 135 48 254.5t132 209t196 141.5t241 52z" glyph-name="uni2126" horiz-adv-x="1583" unicode="Ω"/><glyph d="M1440 571h-1299v64h1299v-64z" glyph-name="minus" horiz-adv-x="1581" unicode="−"/><glyph d="M864 1190l-657 -508l655 -508l-37 -37l-704 545l706 547zM125 51h752v-51h-752v51z" glyph-name="lessequal" horiz-adv-x="997" unicode="≤"/><glyph d="M125 51h752v-51h-752v51zM49 1229l707 -547l-705 -545l-37 37l656 508l-658 508z" glyph-name="greaterequal" horiz-adv-x="997" unicode="≥"/><glyph d="M174 858h-106v152h106v409h369v-139h-187v-270h559v-1010h-186v858h-373v-858h-182v858zM731 1116h187v-51h-187v51z" glyph-name="uniFB01" horiz-adv-x="1026" unicode="ﬁ"/><glyph d="M174 858h-106v152h106v409h789l-9 -1421h-180q0 324 1 641t1 641h-420v-270h187v-152h-187v-858h-182v858z" glyph-name="uniFB02" horiz-adv-x="1064" unicode="ﬂ"/><glyph d="M293 295q0 -66 50 -112t126 -46q80 0 151.5 31t134 83t116 121.5t94.5 147.5v45q-53 -18 -124 -31.5t-145.5 -26.5t-147.5 -29.5t-129.5 -41t-91 -58.5t-34.5 -83zM961 0l10 492h-6q-33 -100 -84.5 -192.5t-119 -162t-150.5 -111.5t-179 -42q-68 0 -127 24.5t-103 66.5 t-70 97t-26 117q0 86 46.5 145.5t119 99t165.5 65.5t187.5 44.5t181.5 34.5t150 39q-2 31 -19 62.5t-55 57t-98.5 42t-148.5 16.5q-92 0 -153.5 -21.5t-99.5 -50t-55.5 -56.5t-19.5 -40l-172 41q2 12 25.5 57t79 94.5t149.5 87t240 37.5q166 0 267 -37.5t156.5 -93t74 -118 t18.5 -109.5v-686h-184z" glyph-name="glyph219" horiz-adv-x="1269"/><glyph d="M324 852h-185v184q0 66 39 124.5t103 99.5l28 -46q-53 -33 -86 -80t-33 -98h134v-184z" glyph-name="glyph220" horiz-adv-x="473"/></font>
</defs>
</svg>
