<svg height="110" viewBox="0 0 86 110" width="86" xmlns="http://www.w3.org/2000/svg"><g fill="#fff"><path d="m35.9814053 32.3832556v17.7251826h2.1961954c1.2416795 0 1.9828449-.641242 1.9828449-2.4112317v-12.9047421c0-1.7699896-.7411654-2.4081974-1.9828449-2.4081974h-2.1961954z"/><path d="m22.8022108 11.0483055v-2.44359724c0-1.77504682-.6036504-2.55181944-1.9848672-2.55181944h-1.8776864v7.62005858h1.5237875c1.4519966-.0010115 2.3387661-.6402306 2.3387661-2.6246419z"/><path d="m62.554156 76.5975986c1.2406683 0 2.0182348-.6766424 2.0182348-2.4476432v-13.3993277c0-1.7740354-.7785776-2.4476429-2.0182348-2.4476429-1.2426907 0-2.0222794.6736075-2.0222794 2.4476429v13.3993277c0 1.7710008.7805999 2.4476432 2.0222794 2.4476432z"/><path d="m85.9863071 30.4301984v-30.37706896h-85.9863071v26.32733256 4.048725 22.2745618 4.0537821 22.275573 4.052771 26.3263211h46.8734019v-26.32531h39.1129052v-30.3821258h-39.4324253v-22.2745618zm-15.1792292-27.92538037h4.8918937l4.0010796 14.85476507v-14.85476507h3.4742762v24.81626707h-4.0031018l-4.856504-17.97399256v17.97399256h-3.5076437zm-13.0042673.00101142h10.6351671v3.54503652h-6.7362125v6.91206263h5.3519623v3.5450365h-5.3519623v7.2660606h6.7362125v3.5450365h-10.6351671zm-25.5788003 0h5.7068723l3.9697344 24.81525565h-3.9353557l-.673419-4.5038653h-4.7826906l-.6734191 4.5038653h-3.5804456zm11.8353899 32.46565685v12.5487212c0 3.9678112-1.9120651 6.1312444-5.8110197 6.1312444h-6.1659298v-24.8132328h6.1659298c3.8989546 0 5.8110197 2.1614102 5.8110197 6.1332672zm-29.0186976-32.46565685h5.8807884c4.0415253 0 5.7776521 1.87922336 5.7776521 5.70948105v1.9469887c0 2.5538423-.8159897 4.2216783-2.5541388 5.0338507 1.9525107.8152067 2.5895287 2.6964529 2.5895287 5.2846836v3.8272234c0 1.203593.0343787 2.0895993.4246787 3.0130282h-3.9707455c-.2103171-.6371963-.3518767-1.0296283-.3518767-3.0494394v-3.8980231c0-2.3050323-.7805998-3.1556387-2.5521165-3.1556387h-1.3468381v10.1031012h-3.8979434v-24.81525565zm-12.18726644 0h10.31160244v3.54604794h-6.41365899v7.47744791h5.03244219v3.546048h-5.03244219v10.2436889h-3.89794345zm10.31160244 56.20981575h-6.41365899v7.477448h5.03244219v3.5460479h-5.03244219v10.2477345h-3.89794345v-24.8182897h10.31160244zm1.1344986-10.981016c0 3.9678112-1.9858783 6.2374437-5.81101966 6.2374437-3.8261525 0-5.81304196-2.2696325-5.81304196-6.2374437v-18.8964101h3.89996572v19.1421858c0 1.7710011.77655527 2.4112317 2.01924593 2.4112317 1.23965721 0 2.01924597-.6402306 2.01924597-2.4112317v-19.1421858h3.6866152v18.8964101zm4.64012 32.2532582h-3.8979434v-24.8193015h3.8979434zm1.4873865-26.3344127h-3.5056213v-24.8152556h4.8868381l4.0041131 14.8527421v-14.8527421h3.4742759v24.8152556h-4.0051242l-4.8544816-17.9719697zm14.2439246 26.331378h-4.0020908l-3.7927849-9.8917137-1.2042674 2.270644v7.6210697h-3.8969323v-24.8162668h3.8969323v10.8121085l5.1052442-10.8121085h3.8959212l-5.4197086 11.0619299zm36.1340874-24.8162668h4.8939159l4.0010796 14.854765v-14.854765h3.4773094v24.8182897h-4.007146l-4.856504-17.9760152v17.9760152h-3.509666v-24.8182897zm-14.1691003 5.8298404c0-3.9708455 2.0910369-6.2394666 5.9192117-6.2394666 3.8251414 0 5.9192116 2.2696325 5.9192116 6.2394666v12.9037304c0 3.9728684-2.0930591 6.2384555-5.9192116 6.2384555-3.8271637 0-5.9192117-2.2655871-5.9192117-6.2384555zm-6.5178063-5.8298404h3.8979434v24.8193015h-3.8979434zm-2.128449 0v3.5470593h-4.0779263v21.2712304h-3.8969323v-21.2712304h-4.0759041v-3.5470593zm-4.4641817-33.7683693v-18.89539857h3.9009769v19.14319717c0 1.7710012.7765553 2.4102203 2.0162125 2.4102203 1.2426907 0 2.0202571-.6392191 2.0202571-2.4102203v-19.14319717h3.6866152v18.89539857c0 3.9698341-1.9828448 6.2374438-5.8120308 6.2374438-3.8261525 0-5.8120309-2.2676097-5.8120309-6.2374438z"/><path d="m34.8822965 6.90147245-1.8776864 12.54872135h3.757395z"/></g></svg>