<?xml version="1.0" encoding="utf-8"?>
<!-- Generator: Adobe Illustrator 26.5.0, SVG Export Plug-In . SVG Version: 6.00 Build 0)  -->
<svg version="1.1" id="Ebene_1" xmlns="http://www.w3.org/2000/svg" xmlns:xlink="http://www.w3.org/1999/xlink" x="0px" y="0px"
	 viewBox="0 0 302.2 97.1" style="enable-background:new 0 0 302.2 97.1;" xml:space="preserve">
<style type="text/css">
	.st0{fill:#FFFFFF;}
</style>
<g>
	<polygon class="st0" points="17,66.1 17,88.9 14.3,88.9 14.3,78.1 2.8,78.1 2.8,88.9 0,88.9 0,66.1 2.8,66.1 2.8,76.4 14.3,76.4 
		14.3,66.1 	"/>
	<g>
		<path class="st0" d="M33.1,82.7v-1.3l-0.1,0c-4.1,0.4-7.5,1-7.5,3.7c0,1.4,0.9,2.3,2.8,2.3C31.3,87.4,33.1,85.2,33.1,82.7
			 M35.7,78.3v10.6h-2.5v-2.4c-1.1,1.6-2.9,2.7-5.6,2.7c-3.2,0-4.7-1.6-4.7-3.9c0-4,4.5-5,10-5.4h0.2v-1.6c0-2-1-3.1-3.5-3.1
			c-3.4,0-6,1.9-6,1.9l0.3-2.3c0,0,2.3-1.8,6.1-1.8C34.6,73.1,35.7,75.7,35.7,78.3"/>
		<path class="st0" d="M63.9,78v10.9h-2.6V78.4c0-1.9-0.7-3.2-2.6-3.2c-2.5,0-4.4,1.9-4.4,5.1v8.6h-2.6V78.4c0-1.9-0.7-3.2-2.6-3.2
			c-2.5,0-4.4,1.9-4.4,5.1v8.6h-2.6V73.4h2.4v2.7c1.1-1.8,2.9-3,5.3-3c2.4,0,3.8,1.1,4.3,3.1c1.1-1.9,2.9-3.1,5.3-3.1
			C62.5,73.1,63.9,75,63.9,78"/>
		<path class="st0" d="M81.4,81.2c0-4.1-1.3-6.1-4.1-6.1c-2.4,0-4.5,2-4.5,6.1c0,4,1.9,6,4.4,6C79.9,87.2,81.4,85.4,81.4,81.2
			 M84.1,81.2c0,5.5-3,8-6.4,8c-2.3,0-3.9-1.1-4.9-2.7v2.4h-2.5V66.1h2.6V76c1.1-1.7,2.8-2.9,5.1-2.9C81.6,73.1,84.1,75.8,84.1,81.2
			"/>
		<path class="st0" d="M102.7,73.4v15.5h-2.4v-2.7c-1.1,1.8-3.1,3-5.6,3c-3.2,0-4.7-1.9-4.7-4.9V73.4h2.6V84c0,1.9,0.7,3.2,2.8,3.2
			c2.6,0,4.8-2,4.8-5.1v-8.7H102.7z"/>
		<path class="st0" d="M118.3,76c0,0-0.6-0.2-1.6-0.2c-2.6,0-4.8,2.3-4.8,6.1v6.9h-2.6V73.4h2.5v3.8c1.1-2.5,3.1-4.1,5.3-4.1
			c0.5,0,1,0.1,1,0.1L118.3,76z"/>
		<path class="st0" d="M133.2,80.8c0-3.9-1.9-5.7-4.4-5.7c-2.7,0-4.1,1.7-4.1,5.7c0,3.9,1.3,5.7,4,5.7
			C131.2,86.6,133.2,84.7,133.2,80.8 M135.8,73.4v16c0,2.9-1.7,5.9-7.1,5.9c-3.6,0-5.6-1.9-5.6-1.9l-0.3-2.3c0,0,2.3,2.1,6,2.1
			c2.9,0,4.5-1.3,4.5-3.6v-3.6c-1.1,1.6-2.8,2.7-5.1,2.7c-3.6,0-6.1-2.5-6.1-7.7c0-5.3,3-7.7,6.4-7.7c2.3,0,3.9,1,4.9,2.6v-2.3
			H135.8z"/>
		<path class="st0" d="M110.5,44.5l0.2-0.1v2.6c-21.5,6-37.1,4.3-58.6,0.1c-18.6-3.7-32.7-6.4-51.3,0v-2.6
			c18.6-6.2,33.2-3.5,51.8,0.2C73.7,48.8,89.1,50.5,110.5,44.5"/>
		<path class="st0" d="M79.3,45.2l-0.1-8.1c0-2.4-2-4.4-4.4-4.4c-2.4,0-4.4,2-4.4,4.4l-0.1,7.3c-4.7-0.6-9.3-1.4-13.9-2.2
			c1.9-5.4,2.9-9.7,3.3-15.8h30c0.4,6.4,1.9,12.3,4,18.3C88.8,45.3,83.9,45.4,79.3,45.2"/>
	</g>
	<polygon class="st0" points="65.9,8.6 64.3,8.6 63.5,10 62.7,8.6 61.1,8.6 61.9,7.2 61.1,5.9 62.7,5.9 63.5,4.5 64.3,5.9 65.9,5.9 
		65.1,7.2 	"/>
	<polygon class="st0" points="88.5,8.6 86.9,8.6 86.1,10 85.3,8.6 83.7,8.6 84.5,7.2 83.7,5.9 85.3,5.9 86.1,4.5 86.9,5.9 88.5,5.9 
		87.7,7.2 	"/>
	<g>
		<path class="st0" d="M70.7,9.2V9.1c0-1.9,1.4-3.6,3.2-4V3.3h-1.5V1.7h1.5V0h1.9v1.7h1.5v1.6h-1.5v1.8c1.9,0.4,3.1,2.1,3.2,4.1h1.6
			v2.1h-1.8v11.3h3.8V11.3h7.1v11.3h2.2v2.2H57.7v-2.2h2.2V11.3H67v11.3h3.8V11.3h-1.8V9.2H70.7z"/>
		<path class="st0" d="M167.4,70.2c0.2,0,0.6,0.1,1.1,0.1c1.3,0,2.5-0.5,2.5-1.9c0-1.3-1.2-1.9-2.5-1.9h-1V70.2z M167.4,65.5h1.1
			c1.3,0,2.1-0.7,2.1-1.6c0-1.2-0.9-1.6-2.2-1.6c-0.6,0-0.9,0-1.1,0.1V65.5z M166.1,61.5c0.6-0.1,1.4-0.2,2.3-0.2
			c1.3,0,2.1,0.2,2.7,0.7c0.5,0.4,0.8,1,0.8,1.7c0,0.9-0.6,1.8-1.7,2.2v0c0.9,0.2,2,1,2,2.5c0,0.8-0.3,1.5-0.8,2
			c-0.7,0.6-1.8,0.9-3.4,0.9c-0.9,0-1.5-0.1-2-0.1V61.5z"/>
		<path class="st0" d="M179.9,67c0-0.8-0.3-2.1-1.8-2.1c-1.3,0-1.9,1.2-2,2.1H179.9z M176.1,67.9c0,1.7,1.1,2.5,2.4,2.5
			c0.9,0,1.5-0.2,2-0.4l0.2,0.9c-0.5,0.2-1.2,0.4-2.4,0.4c-2.2,0-3.5-1.4-3.5-3.6s1.3-3.8,3.3-3.8c2.3,0,2.9,2,2.9,3.3
			c0,0.3,0,0.5,0,0.6H176.1z"/>
		<path class="st0" d="M184.1,60.8h1.3v4.4h0c0.2-0.4,0.5-0.7,0.9-0.9c0.4-0.2,0.8-0.4,1.3-0.4c0.9,0,2.5,0.6,2.5,3v4.2h-1.3v-4.1
			c0-1.1-0.4-2.1-1.6-2.1c-0.8,0-1.5,0.6-1.7,1.3c-0.1,0.2-0.1,0.4-0.1,0.6v4.3h-1.3V60.8z"/>
		<path class="st0" d="M197.2,62.1c0-0.4,0.3-0.7,0.7-0.7s0.7,0.3,0.7,0.7c0,0.4-0.3,0.7-0.7,0.7C197.5,62.9,197.2,62.5,197.2,62.1
			 M194.5,62.1c0-0.4,0.3-0.7,0.7-0.7c0.4,0,0.7,0.3,0.7,0.7c0,0.4-0.3,0.7-0.7,0.7C194.8,62.9,194.5,62.5,194.5,62.1 M194.4,67.7
			c0,1.5,0.9,2.7,2.1,2.7c1.2,0,2.1-1.2,2.1-2.7c0-1.2-0.6-2.7-2.1-2.7C195.1,64.9,194.4,66.3,194.4,67.7 M200,67.6
			c0,2.6-1.8,3.7-3.5,3.7c-1.9,0-3.4-1.4-3.4-3.6c0-2.4,1.5-3.7,3.5-3.7C198.6,64,200,65.4,200,67.6"/>
		<path class="st0" d="M203,66.3c0-0.8,0-1.5-0.1-2.2h1.1l0,1.4h0.1c0.3-0.9,1.1-1.5,2-1.5c0.1,0,0.2,0,0.4,0v1.2
			c-0.1,0-0.3,0-0.4,0c-0.9,0-1.5,0.7-1.7,1.6c0,0.2-0.1,0.4-0.1,0.6v3.8H203V66.3z"/>
		<path class="st0" d="M213.9,67c0-0.2,0-0.4-0.1-0.5c-0.2-0.8-0.9-1.5-1.9-1.5c-1.3,0-2.1,1.2-2.1,2.7c0,1.4,0.7,2.6,2.1,2.6
			c0.9,0,1.6-0.6,1.9-1.5c0-0.2,0.1-0.4,0.1-0.6V67z M215.1,60.8v8.5c0,0.6,0,1.3,0.1,1.8H214L214,70h0c-0.4,0.8-1.3,1.4-2.4,1.4
			c-1.7,0-3-1.4-3-3.6c0-2.4,1.4-3.8,3.2-3.8c1.1,0,1.8,0.5,2.1,1.1h0v-4.2H215.1z"/>
		<path class="st0" d="M223.1,67c0-0.8-0.3-2.1-1.8-2.1c-1.3,0-1.9,1.2-2,2.1H223.1z M219.4,67.9c0,1.7,1.1,2.5,2.4,2.5
			c0.9,0,1.5-0.2,2-0.4l0.2,0.9c-0.5,0.2-1.2,0.4-2.4,0.4c-2.2,0-3.5-1.4-3.5-3.6s1.3-3.8,3.3-3.8c2.3,0,2.9,2,2.9,3.3
			c0,0.3,0,0.5,0,0.6H219.4z"/>
		<path class="st0" d="M232,71.2v-6.1h-1v-1h1v-0.3c0-1,0.2-1.9,0.8-2.5c0.5-0.5,1.1-0.7,1.7-0.7c0.5,0,0.8,0.1,1.1,0.2l-0.2,1
			c-0.2-0.1-0.5-0.2-0.8-0.2c-1.1,0-1.4,1-1.4,2v0.4h1.7v1h-1.7v6.1H232z"/>
		<path class="st0" d="M241.1,62.1c0-0.4,0.3-0.7,0.7-0.7c0.4,0,0.7,0.3,0.7,0.7c0,0.4-0.3,0.7-0.7,0.7
			C241.4,62.9,241.1,62.5,241.1,62.1 M238.4,62.1c0-0.4,0.3-0.7,0.7-0.7c0.4,0,0.7,0.3,0.7,0.7c0,0.4-0.3,0.7-0.7,0.7
			C238.7,62.9,238.4,62.5,238.4,62.1 M243.4,69.3c0,0.7,0,1.4,0.1,1.9h-1.1l-0.1-1.1h0c-0.3,0.6-1.1,1.3-2.3,1.3
			c-1.1,0-2.4-0.6-2.4-3.1v-4.1h1.3V68c0,1.3,0.4,2.2,1.6,2.2c0.9,0,1.5-0.6,1.7-1.2c0.1-0.2,0.1-0.4,0.1-0.7v-4.3h1.3V69.3z"/>
		<path class="st0" d="M247,66.3c0-0.8,0-1.5-0.1-2.2h1.1l0,1.4h0.1c0.3-0.9,1.1-1.5,2-1.5c0.1,0,0.2,0,0.4,0v1.2
			c-0.1,0-0.3,0-0.4,0c-0.9,0-1.5,0.7-1.7,1.6c0,0.2-0.1,0.4-0.1,0.6v3.8H247V66.3z"/>
		<path class="st0" d="M166.1,78.9h1.3v4.7h0c0.3-0.4,0.5-0.7,0.8-1.1l3-3.7h1.6l-3.6,4.2l3.8,5.7h-1.5l-3.2-4.8l-0.9,1.1v3.7h-1.3
			V78.9z"/>
		<path class="st0" d="M181.2,86.8c0,0.7,0,1.4,0.1,1.9h-1.1l-0.1-1.1h0c-0.3,0.6-1.1,1.3-2.3,1.3c-1.1,0-2.4-0.6-2.4-3.1v-4.1h1.3
			v3.9c0,1.3,0.4,2.2,1.6,2.2c0.9,0,1.5-0.6,1.7-1.2c0.1-0.2,0.1-0.4,0.1-0.7v-4.3h1.3V86.8z"/>
	</g>
	<rect x="184.7" y="78.3" class="st0" width="1.3" height="10.4"/>
	<g>
		<path class="st0" d="M191.1,79.6v2h1.8v1h-1.8v3.8c0,0.9,0.2,1.4,1,1.4c0.3,0,0.6,0,0.7-0.1l0.1,1c-0.2,0.1-0.6,0.2-1.1,0.2
			c-0.6,0-1.1-0.2-1.4-0.5c-0.4-0.4-0.5-1-0.5-1.8v-3.9h-1.1v-1h1.1v-1.7L191.1,79.6z"/>
		<path class="st0" d="M201.7,86.8c0,0.7,0,1.4,0.1,1.9h-1.1l-0.1-1.1h0c-0.3,0.6-1.1,1.3-2.3,1.3c-1.1,0-2.4-0.6-2.4-3.1v-4.1h1.3
			v3.9c0,1.3,0.4,2.2,1.6,2.2c0.9,0,1.5-0.6,1.7-1.2c0.1-0.2,0.1-0.4,0.1-0.7v-4.3h1.3V86.8z"/>
		<path class="st0" d="M205.2,83.8c0-0.8,0-1.5-0.1-2.2h1.1l0,1.4h0.1c0.3-0.9,1.1-1.5,2-1.5c0.1,0,0.2,0,0.4,0v1.2
			c-0.1,0-0.3,0-0.4,0c-0.9,0-1.5,0.7-1.7,1.6c0,0.2-0.1,0.4-0.1,0.6v3.8h-1.3V83.8z"/>
		<path class="st0" d="M221.8,86.8c0,0.7,0,1.4,0.1,1.9h-1.1l-0.1-1.1h0c-0.3,0.6-1.1,1.3-2.3,1.3c-1.1,0-2.4-0.6-2.4-3.1v-4.1h1.3
			v3.9c0,1.3,0.4,2.2,1.6,2.2c0.9,0,1.5-0.6,1.7-1.2c0.1-0.2,0.1-0.4,0.1-0.7v-4.3h1.3V86.8z"/>
		<path class="st0" d="M225.3,83.5c0-0.7,0-1.3-0.1-1.9h1.1l0.1,1.2h0c0.4-0.7,1.2-1.3,2.3-1.3c1,0,2.5,0.6,2.5,3v4.2H230v-4.1
			c0-1.1-0.4-2.1-1.6-2.1c-0.8,0-1.5,0.6-1.7,1.3c-0.1,0.2-0.1,0.4-0.1,0.6v4.2h-1.3V83.5z"/>
		<path class="st0" d="M239.6,84.5c0-0.2,0-0.4-0.1-0.5c-0.2-0.8-0.9-1.5-1.9-1.5c-1.3,0-2.1,1.2-2.1,2.7c0,1.4,0.7,2.6,2.1,2.6
			c0.9,0,1.6-0.6,1.9-1.5c0-0.2,0.1-0.4,0.1-0.6V84.5z M240.9,78.3v8.5c0,0.6,0,1.3,0.1,1.8h-1.2l-0.1-1.2h0
			c-0.4,0.8-1.3,1.4-2.4,1.4c-1.7,0-3-1.4-3-3.6c0-2.4,1.4-3.8,3.2-3.8c1.1,0,1.8,0.5,2.1,1.1h0v-4.2H240.9z"/>
		<path class="st0" d="M257.2,84.4c-0.1-1.4-0.2-3-0.1-4.2h0c-0.3,1.2-0.7,2.4-1.2,3.7l-1.7,4.8h-1l-1.6-4.7
			c-0.5-1.4-0.9-2.7-1.1-3.8h0c0,1.2-0.1,2.9-0.2,4.3l-0.3,4.2h-1.2l0.7-9.8h1.6l1.7,4.8c0.4,1.2,0.7,2.3,1,3.3h0
			c0.2-1,0.6-2.1,1-3.3l1.7-4.8h1.6l0.6,9.8h-1.2L257.2,84.4z"/>
		<path class="st0" d="M266.6,84.5c0-0.8-0.3-2.1-1.8-2.1c-1.3,0-1.9,1.2-2,2.1H266.6z M262.8,85.4c0,1.7,1.1,2.5,2.4,2.5
			c0.9,0,1.5-0.2,2-0.4l0.2,0.9c-0.5,0.2-1.2,0.4-2.4,0.4c-2.2,0-3.5-1.4-3.5-3.6s1.3-3.8,3.3-3.8c2.3,0,2.9,2,2.9,3.3
			c0,0.3,0,0.5,0,0.6H262.8z"/>
		<path class="st0" d="M275.7,84.5c0-0.2,0-0.4-0.1-0.5c-0.2-0.8-0.9-1.5-1.9-1.5c-1.3,0-2.1,1.2-2.1,2.7c0,1.4,0.7,2.6,2.1,2.6
			c0.9,0,1.6-0.6,1.9-1.5c0-0.2,0.1-0.4,0.1-0.6V84.5z M276.9,78.3v8.5c0,0.6,0,1.3,0.1,1.8h-1.1l-0.1-1.2h0
			c-0.4,0.8-1.3,1.4-2.4,1.4c-1.7,0-3-1.4-3-3.6c0-2.4,1.4-3.8,3.2-3.8c1.1,0,1.8,0.5,2.1,1.1h0v-4.2H276.9z"/>
		<path class="st0" d="M280.5,81.6h1.3v7.1h-1.3V81.6z M281.9,79.6c0,0.4-0.3,0.8-0.8,0.8c-0.5,0-0.8-0.3-0.8-0.8
			c0-0.5,0.3-0.8,0.8-0.8C281.6,78.8,281.9,79.2,281.9,79.6"/>
		<path class="st0" d="M289.8,84.5c0-0.8-0.3-2.1-1.8-2.1c-1.3,0-1.9,1.2-2,2.1H289.8z M286,85.4c0,1.7,1.1,2.5,2.4,2.5
			c0.9,0,1.5-0.2,2-0.4l0.2,0.9c-0.5,0.2-1.2,0.4-2.4,0.4c-2.2,0-3.5-1.4-3.5-3.6s1.3-3.8,3.3-3.8c2.3,0,2.9,2,2.9,3.3
			c0,0.3,0,0.5,0,0.6H286z"/>
		<path class="st0" d="M294,83.5c0-0.7,0-1.3-0.1-1.9h1.1l0.1,1.2h0c0.4-0.7,1.2-1.3,2.3-1.3c1,0,2.5,0.6,2.5,3v4.2h-1.3v-4.1
			c0-1.1-0.4-2.1-1.6-2.1c-0.8,0-1.5,0.6-1.7,1.3c-0.1,0.2-0.1,0.4-0.1,0.6v4.2H294V83.5z"/>
	</g>
	<rect x="150.5" y="60.8" class="st0" width="0.9" height="28.1"/>
</g>
</svg>
