<?xml version="1.0" encoding="UTF-8"?>
<svg width="86px" height="110px" viewBox="0 0 86 110" version="1.1" xmlns="http://www.w3.org/2000/svg" xmlns:xlink="http://www.w3.org/1999/xlink">
    <!-- Generator: Sketch 42 (36781) - http://www.bohemiancoding.com/sketch -->
    <title>fuf-logo</title>
    <desc>Created with Sketch.</desc>
    <defs></defs>
    <g id="Page-1" stroke="none" stroke-width="1" fill="none" fill-rule="evenodd">
        <g id="fuf-logo" fill-rule="nonzero" fill="#FFFFFF">
            <g id="FuF-Logo-Web-grau-01">
                <g id="Page-1">
                    <g id="FuF-Logo-Web-grau-01">
                        <g id="Ebene_1">
                            <g id="Group">
                                <path d="M35.9814053,32.3832556 L35.9814053,50.1084382 L38.1776007,50.1084382 C39.4192802,50.1084382 40.1604456,49.4671962 40.1604456,47.6972065 L40.1604456,34.7924644 C40.1604456,33.0224748 39.4192802,32.384267 38.1776007,32.384267 L35.9814053,32.384267 L35.9814053,32.3832556 Z" id="Shape"></path>
                                <path d="M22.8022108,11.0483055 L22.8022108,8.60470826 C22.8022108,6.82966144 22.1985604,6.05288882 20.8173436,6.05288882 L18.9396572,6.05288882 L18.9396572,13.6729474 L20.4634447,13.6729474 C21.9154413,13.6719359 22.8022108,13.0327168 22.8022108,11.0483055 Z" id="Shape"></path>
                                <path d="M62.554156,76.5975986 C63.7948243,76.5975986 64.5723908,75.9209562 64.5723908,74.1499554 L64.5723908,60.7506277 C64.5723908,58.9765923 63.7938132,58.3029848 62.554156,58.3029848 C61.3114653,58.3029848 60.5318766,58.9765923 60.5318766,60.7506277 L60.5318766,74.1499554 C60.5318766,75.9209562 61.3124765,76.5975986 62.554156,76.5975986 Z" id="Shape"></path>
                                <path d="M85.9863071,30.4301984 L85.9863071,0.0531294387 L0,0.0531294387 L0,26.380462 L0,30.429187 L0,52.7037488 L0,56.7575309 L0,79.0331039 L0,83.0858749 L0,109.412196 L46.8734019,109.412196 L46.8734019,83.086886 L85.9863071,83.086886 L85.9863071,52.7047602 L46.5538818,52.7047602 L46.5538818,30.4301984 L85.9863071,30.4301984 Z M70.8070779,2.50481803 L75.6989716,2.50481803 L79.7000512,17.3595831 L79.7000512,2.50481803 L83.1743274,2.50481803 L83.1743274,27.3210851 L79.1712256,27.3210851 L74.3147216,9.34709254 L74.3147216,27.3210851 L70.8070779,27.3210851 L70.8070779,2.50481803 Z M57.8028106,2.50582945 L68.4379777,2.50582945 L68.4379777,6.05086597 L61.7017652,6.05086597 L61.7017652,12.9629286 L67.0537275,12.9629286 L67.0537275,16.5079651 L61.7017652,16.5079651 L61.7017652,23.7740257 L68.4379777,23.7740257 L68.4379777,27.3190622 L57.8028106,27.3190622 L57.8028106,2.50582945 Z M32.2240103,2.50582945 L37.9308826,2.50582945 L41.900617,27.3210851 L37.9652613,27.3210851 L37.2918423,22.8172198 L32.5091517,22.8172198 L31.8357326,27.3210851 L28.255287,27.3210851 L32.2240103,2.50582945 Z M44.0594002,34.9714863 L44.0594002,47.5202075 C44.0594002,51.4880187 42.1473351,53.6514519 38.2483805,53.6514519 L32.0824507,53.6514519 L32.0824507,28.8382191 L38.2483805,28.8382191 C42.1473351,28.8382191 44.0594002,30.9996293 44.0594002,34.9714863 Z M15.0407026,2.50582945 L20.921491,2.50582945 C24.9630163,2.50582945 26.6991431,4.38505281 26.6991431,8.2153105 L26.6991431,10.1622992 C26.6991431,12.7161415 25.8831534,14.3839775 24.1450043,15.1961499 C26.097515,16.0113566 26.734533,17.8926028 26.734533,20.4808335 L26.734533,24.3080569 C26.734533,25.5116499 26.7689117,26.3976562 27.1592117,27.3210851 L23.1884662,27.3210851 C22.9781491,26.6838888 22.8365895,26.2914568 22.8365895,24.2716457 L22.8365895,20.3736226 C22.8365895,18.0685903 22.0559897,17.2179839 20.284473,17.2179839 L18.9376349,17.2179839 L18.9376349,27.3210851 L15.0396915,27.3210851 L15.0396915,2.50582945 L15.0407026,2.50582945 Z M2.85343616,2.50582945 L13.1650386,2.50582945 L13.1650386,6.05187739 L6.75137961,6.05187739 L6.75137961,13.5293253 L11.7838218,13.5293253 L11.7838218,17.0753733 L6.75137961,17.0753733 L6.75137961,27.3190622 L2.85343616,27.3190622 L2.85343616,2.50582945 Z M13.1650386,58.7156452 L6.75137961,58.7156452 L6.75137961,66.1930932 L11.7838218,66.1930932 L11.7838218,69.7391411 L6.75137961,69.7391411 L6.75137961,79.9868756 L2.85343616,79.9868756 L2.85343616,55.1685859 L13.1650386,55.1685859 L13.1650386,58.7156452 Z M14.2995372,47.7346292 C14.2995372,51.7024404 12.3136589,53.9720729 8.48851754,53.9720729 C4.66236504,53.9720729 2.67547558,51.7024404 2.67547558,47.7346292 L2.67547558,28.8382191 L6.5754413,28.8382191 L6.5754413,47.9804049 C6.5754413,49.751406 7.35199657,50.3916366 8.59468723,50.3916366 C9.83434444,50.3916366 10.6139332,49.751406 10.6139332,47.9804049 L10.6139332,28.8382191 L14.3005484,28.8382191 L14.3005484,47.7346292 L14.2995372,47.7346292 Z M18.9396572,79.9878874 L15.0417138,79.9878874 L15.0417138,55.1685859 L18.9396572,55.1685859 L18.9396572,79.9878874 Z M20.4270437,53.6534747 L16.9214224,53.6534747 L16.9214224,28.8382191 L21.8082605,28.8382191 L25.8123736,43.6909612 L25.8123736,28.8382191 L29.2866495,28.8382191 L29.2866495,53.6534747 L25.2815253,53.6534747 L20.4270437,35.681505 L20.4270437,53.6534747 Z M34.6709683,79.9848527 L30.6688775,79.9848527 L26.8760926,70.093139 L25.6718252,72.363783 L25.6718252,79.9848527 L21.7748929,79.9848527 L21.7748929,55.1685859 L25.6718252,55.1685859 L25.6718252,65.9806944 L30.7770694,55.1685859 L34.6729906,55.1685859 L29.253282,66.2305158 L34.6709683,79.9848527 Z M70.8050557,55.1685859 L75.6989716,55.1685859 L79.7000512,70.0233509 L79.7000512,55.1685859 L83.1773606,55.1685859 L83.1773606,79.9868756 L79.1702146,79.9868756 L74.3137106,62.0108604 L74.3137106,79.9868756 L70.8040446,79.9868756 L70.8040446,55.1685859 L70.8050557,55.1685859 Z M56.6359554,60.9984263 C56.6359554,57.0275808 58.7269923,54.7589597 62.5551671,54.7589597 C66.3803085,54.7589597 68.4743787,57.0285922 68.4743787,60.9984263 L68.4743787,73.9021567 C68.4743787,77.8750251 66.3813196,80.1406122 62.5551671,80.1406122 C58.7280034,80.1406122 56.6359554,77.8750251 56.6359554,73.9021567 L56.6359554,60.9984263 Z M50.1181491,55.1685859 L54.0160925,55.1685859 L54.0160925,79.9878874 L50.1181491,79.9878874 L50.1181491,55.1685859 Z M47.9897001,55.1685859 L47.9897001,58.7156452 L43.9117738,58.7156452 L43.9117738,79.9868756 L40.0148415,79.9868756 L40.0148415,58.7156452 L35.9389374,58.7156452 L35.9389374,55.1685859 L47.9897001,55.1685859 Z M43.5255184,21.4002166 L43.5255184,2.50481803 L47.4264953,2.50481803 L47.4264953,21.6480152 C47.4264953,23.4190164 48.2030506,24.0582355 49.4427078,24.0582355 C50.6853985,24.0582355 51.4629649,23.4190164 51.4629649,21.6480152 L51.4629649,2.50481803 L55.1495801,2.50481803 L55.1495801,21.4002166 C55.1495801,25.3700507 53.1667353,27.6376604 49.3375493,27.6376604 C45.5113968,27.6376604 43.5255184,25.3700507 43.5255184,21.4002166 Z" id="Shape"></path>
                                <polygon id="Shape" points="34.8822965 6.90147245 33.0046101 19.4501938 36.7620051 19.4501938"></polygon>
                            </g>
                        </g>
                    </g>
                </g>
            </g>
        </g>
    </g>
</svg>